STARTFONT 2.1
FONT -DIGITAL-VT220-medium-I-Normal-136col-40-400-75-75-c-180-iso10646-1
SIZE 40 75 75
FONTBOUNDINGBOX 31 40 -6 -8
STARTPROPERTIES 21
FOUNDRY "DIGITAL"
FAMILY_NAME "vt220"
WEIGHT_NAME "medium"
RELATIVE_SETWIDTH 50
SLANT "I"
SETWIDTH_NAME "Normal"
ADD_STYLE_NAME "136col"
PIXEL_SIZE 40
POINT_SIZE 400
RESOLUTION_X 75
RESOLUTION_Y 75
SPACING "c"
CHARSET_REGISTRY "ISO10646"
CHARSET_ENCODING "1"
CAP_HEIGHT 28
X_HEIGHT 20
WEIGHT 10
QUAD_WIDTH 18
FONT_ASCENT 32
FONT_DESCENT 8
AVERAGE_WIDTH 180
ENDPROPERTIES
CHARS 237
STARTCHAR U+00FD
ENCODING 253
SWIDTH 1000 0
DWIDTH 18 0
BBX 31 40 -6 -8
BITMAP
00000000
00000000
00000000
00000000
00000000
00000000
00000000
00000000
00000000
00000000
00000000
00000000
00000000
00000000
00000000
00000000
00000000
00000000
00000000
00000000
00000000
00000000
00000000
00000000
00000000
00000000
00000000
00000000
00000000
00000000
00000000
00000000
00000000
00000000
00000000
00000000
00000000
00000000
00000000
00000000
ENDCHAR
STARTCHAR U+25A1
ENCODING 9633
SWIDTH 1000 0
DWIDTH 18 0
BBX 31 40 -6 -8
BITMAP
00000000
00000000
00000000
00000000
000FFFF0
000FFFF0
001FFFE0
001FFFE0
001E01E0
003C03C0
003C03C0
003C03C0
00780780
00780780
00780780
00F00F00
00F00F00
00F00F00
01E01E00
01E01E00
01E01E00
03C03C00
03C03C00
03C03C00
07807800
07807800
07807800
0F00F000
0FFFF000
0FFFF000
1FFFE000
1FFFE000
00000000
00000000
00000000
00000000
00000000
00000000
00000000
00000000
ENDCHAR
STARTCHAR U+00FE
ENCODING 254
SWIDTH 1000 0
DWIDTH 18 0
BBX 31 40 -6 -8
BITMAP
00000000
00000000
00000000
00000000
000F0000
000F0000
001E0000
001E0000
001E0000
003C0000
003C0000
003C0000
007FFE00
007FFE00
007FFE00
00FFFC00
00FC0F00
00FC0F00
01F81E00
01F81E00
01F81E00
03F03C00
03F03C00
03F03C00
07FFE000
07FFE000
07FFE000
0FFFC000
0F000000
0F000000
1E000000
1E000000
1E000000
3C000000
3C000000
3C000000
78000000
78000000
78000000
F0000000
ENDCHAR
STARTCHAR U+00FF
ENCODING 255
SWIDTH 1000 0
DWIDTH 18 0
BBX 31 40 -6 -8
BITMAP
00000000
00000000
00000000
00000000
0003C3C0
0003C3C0
00078780
00078780
00000000
00000000
00000000
00000000
00781E00
00781E00
00781E00
00F03C00
00F03C00
00F03C00
01E07800
01E07800
01E1F800
03C3F000
03C3F000
03C3F000
01FFE000
01FFE000
01FFE000
03FFC000
0003C000
0003C000
00078000
00078000
1E078000
3C0F0000
3C0F0000
3C0F0000
1FF80000
1FF80000
1FF80000
3FF00000
ENDCHAR
STARTCHAR U+00FC
ENCODING 252
SWIDTH 1000 0
DWIDTH 18 0
BBX 31 40 -6 -8
BITMAP
00000000
00000000
00000000
00000000
0003C3C0
0003C3C0
00078780
00078780
00000000
00000000
00000000
00000000
00781E00
00781E00
00781E00
00F03C00
00F03C00
00F03C00
01E07800
01E07800
01E07800
03C0F000
03C0F000
03C0F000
0781E000
0781E000
0781E000
0F03C000
03FFF000
03FFF000
07FFE000
07FFE000
00000000
00000000
00000000
00000000
00000000
00000000
00000000
00000000
ENDCHAR
STARTCHAR U+00FB
ENCODING 251
SWIDTH 1000 0
DWIDTH 18 0
BBX 31 40 -6 -8
BITMAP
00007F80
00007F80
00007F80
0000FF00
0003C3C0
0003C3C0
00078780
00078780
00000000
00000000
00000000
00000000
00781E00
00781E00
00781E00
00F03C00
00F03C00
00F03C00
01E07800
01E07800
01E07800
03C0F000
03C0F000
03C0F000
0781E000
0781E000
0781E000
0F03C000
03FFF000
03FFF000
07FFE000
07FFE000
00000000
00000000
00000000
00000000
00000000
00000000
00000000
00000000
ENDCHAR
STARTCHAR U+00FA
ENCODING 250
SWIDTH 1000 0
DWIDTH 18 0
BBX 31 40 -6 -8
BITMAP
00000000
00000000
00000000
00000000
00003F00
00003F00
00007E00
00007E00
0007E000
000FC000
000FC000
000FC000
00781E00
00781E00
00781E00
00F03C00
00F03C00
00F03C00
01E07800
01E07800
01E07800
03C0F000
03C0F000
03C0F000
0781E000
0781E000
0781E000
0F03C000
03FFF000
03FFF000
07FFE000
07FFE000
00000000
00000000
00000000
00000000
00000000
00000000
00000000
00000000
ENDCHAR
STARTCHAR U+00F9
ENCODING 249
SWIDTH 1000 0
DWIDTH 18 0
BBX 31 40 -6 -8
BITMAP
00000000
00000000
00000000
00000000
0003F000
0003F000
0007E000
0007E000
00007E00
0000FC00
0000FC00
0000FC00
00781E00
00781E00
00781E00
00F03C00
00F03C00
00F03C00
01E07800
01E07800
01E07800
03C0F000
03C0F000
03C0F000
0781E000
0781E000
0781E000
0F03C000
03FFF000
03FFF000
07FFE000
07FFE000
00000000
00000000
00000000
00000000
00000000
00000000
00000000
00000000
ENDCHAR
STARTCHAR U+00F8
ENCODING 248
SWIDTH 1000 0
DWIDTH 18 0
BBX 31 40 -6 -8
BITMAP
00000000
00000000
00000000
00000000
00000000
00000000
00000000
00000000
000001E0
000003C0
000003C0
000003C0
001FFE00
001FFE00
001FFE00
003FFC00
00F0FF00
00F0FF00
01E1FE00
01E1FE00
01E79E00
03CF3C00
03CF3C00
03CF3C00
07F87800
07F87800
07F87800
0FF0F000
03FFC000
03FFC000
07FF8000
07FF8000
1E000000
3C000000
3C000000
3C000000
00000000
00000000
00000000
00000000
ENDCHAR
STARTCHAR U+0153
ENCODING 339
SWIDTH 1000 0
DWIDTH 18 0
BBX 31 40 -6 -8
BITMAP
00000000
00000000
00000000
00000000
00000000
00000000
00000000
00000000
00000000
00000000
00000000
00000000
001FFE00
001FFE00
001FFE00
003FFC00
00F3CF00
00F3CF00
01E79E00
01E79E00
01E7FE00
03CFFC00
03CFFC00
03CFFC00
079E0000
079E0000
079E0000
0F3C0000
03FFF000
03FFF000
07FFE000
07FFE000
00000000
00000000
00000000
00000000
00000000
00000000
00000000
00000000
ENDCHAR
STARTCHAR U+00F6
ENCODING 246
SWIDTH 1000 0
DWIDTH 18 0
BBX 31 40 -6 -8
BITMAP
00000000
00000000
00000000
00000000
0003C3C0
0003C3C0
00078780
00078780
00000000
00000000
00000000
00000000
001FFE00
001FFE00
001FFE00
003FFC00
00F00F00
00F00F00
01E01E00
01E01E00
01E01E00
03C03C00
03C03C00
03C03C00
07807800
07807800
07807800
0F00F000
03FFC000
03FFC000
07FF8000
07FF8000
00000000
00000000
00000000
00000000
00000000
00000000
00000000
00000000
ENDCHAR
STARTCHAR U+00F5
ENCODING 245
SWIDTH 1000 0
DWIDTH 18 0
BBX 31 40 -6 -8
BITMAP
0001F9E0
0001F9E0
0001F9E0
0003F3C0
000F3F00
000F3F00
001E7E00
001E7E00
00000000
00000000
00000000
00000000
001FFE00
001FFE00
001FFE00
003FFC00
00F00F00
00F00F00
01E01E00
01E01E00
01E01E00
03C03C00
03C03C00
03C03C00
07807800
07807800
07807800
0F00F000
03FFC000
03FFC000
07FF8000
07FF8000
00000000
00000000
00000000
00000000
00000000
00000000
00000000
00000000
ENDCHAR
STARTCHAR U+00F4
ENCODING 244
SWIDTH 1000 0
DWIDTH 18 0
BBX 31 40 -6 -8
BITMAP
00007F80
00007F80
00007F80
0000FF00
0003C3C0
0003C3C0
00078780
00078780
00000000
00000000
00000000
00000000
001FFE00
001FFE00
001FFE00
003FFC00
00F00F00
00F00F00
01E01E00
01E01E00
01E01E00
03C03C00
03C03C00
03C03C00
07807800
07807800
07807800
0F00F000
03FFC000
03FFC000
07FF8000
07FF8000
00000000
00000000
00000000
00000000
00000000
00000000
00000000
00000000
ENDCHAR
STARTCHAR U+00F3
ENCODING 243
SWIDTH 1000 0
DWIDTH 18 0
BBX 31 40 -6 -8
BITMAP
00000000
00000000
00000000
00000000
00003F00
00003F00
00007E00
00007E00
0007E000
000FC000
000FC000
000FC000
001FFE00
001FFE00
001FFE00
003FFC00
00F00F00
00F00F00
01E01E00
01E01E00
01E01E00
03C03C00
03C03C00
03C03C00
07807800
07807800
07807800
0F00F000
03FFC000
03FFC000
07FF8000
07FF8000
00000000
00000000
00000000
00000000
00000000
00000000
00000000
00000000
ENDCHAR
STARTCHAR U+00F2
ENCODING 242
SWIDTH 1000 0
DWIDTH 18 0
BBX 31 40 -6 -8
BITMAP
00000000
00000000
00000000
00000000
0000FC00
0000FC00
0001F800
0001F800
00001F80
00003F00
00003F00
00003F00
001FFE00
001FFE00
001FFE00
003FFC00
00F00F00
00F00F00
01E01E00
01E01E00
01E01E00
03C03C00
03C03C00
03C03C00
07807800
07807800
07807800
0F00F000
03FFC000
03FFC000
07FF8000
07FF8000
00000000
00000000
00000000
00000000
00000000
00000000
00000000
00000000
ENDCHAR
STARTCHAR U+00F1
ENCODING 241
SWIDTH 1000 0
DWIDTH 18 0
BBX 31 40 -6 -8
BITMAP
0001F9E0
0001F9E0
0001F9E0
0003F3C0
000F3F00
000F3F00
001E7E00
001E7E00
00000000
00000000
00000000
00000000
007FFE00
007FFE00
007FFE00
00FFFC00
00FC0F00
00FC0F00
01F81E00
01F81E00
01E01E00
03C03C00
03C03C00
03C03C00
07807800
07807800
07807800
0F00F000
0F00F000
0F00F000
1E01E000
1E01E000
00000000
00000000
00000000
00000000
00000000
00000000
00000000
00000000
ENDCHAR
STARTCHAR U+00F0
ENCODING 240
SWIDTH 1000 0
DWIDTH 18 0
BBX 31 40 -6 -8
BITMAP
00001E78
00001E78
00001E78
00003CF0
00000FC0
00000FC0
00001F80
00001F80
000079E0
0000F3C0
0000F3C0
0000F3C0
001FFF80
001FFF80
001FFF80
003FFF00
00F03F00
00F03F00
01E07E00
01E07E00
01E01E00
03C03C00
03C03C00
03C03C00
0781E000
0781E000
0781E000
0F03C000
03FF0000
03FF0000
07FE0000
07FE0000
00000000
00000000
00000000
00000000
00000000
00000000
00000000
00000000
ENDCHAR
STARTCHAR U+00EF
ENCODING 239
SWIDTH 1000 0
DWIDTH 18 0
BBX 31 40 -6 -8
BITMAP
00000000
00000000
00000000
00000000
0003C3C0
0003C3C0
00078780
00078780
00000000
00000000
00000000
00000000
0007E000
0007E000
0007E000
000FC000
0003C000
0003C000
00078000
00078000
00078000
000F0000
000F0000
000F0000
001E0000
001E0000
001E0000
003C0000
03FFC000
03FFC000
07FF8000
07FF8000
00000000
00000000
00000000
00000000
00000000
00000000
00000000
00000000
ENDCHAR
STARTCHAR U+00EE
ENCODING 238
SWIDTH 1000 0
DWIDTH 18 0
BBX 31 40 -6 -8
BITMAP
00007F80
00007F80
00007F80
0000FF00
0003C3C0
0003C3C0
00078780
00078780
00000000
00000000
00000000
00000000
0007E000
0007E000
0007E000
000FC000
0003C000
0003C000
00078000
00078000
00078000
000F0000
000F0000
000F0000
001E0000
001E0000
001E0000
003C0000
03FFC000
03FFC000
07FF8000
07FF8000
00000000
00000000
00000000
00000000
00000000
00000000
00000000
00000000
ENDCHAR
STARTCHAR U+00ED
ENCODING 237
SWIDTH 1000 0
DWIDTH 18 0
BBX 31 40 -6 -8
BITMAP
00000000
00000000
00000000
00000000
00003F00
00003F00
00007E00
00007E00
0007E000
000FC000
000FC000
000FC000
0007E000
0007E000
0007E000
000FC000
0003C000
0003C000
00078000
00078000
00078000
000F0000
000F0000
000F0000
001E0000
001E0000
001E0000
003C0000
03FFC000
03FFC000
07FF8000
07FF8000
00000000
00000000
00000000
00000000
00000000
00000000
00000000
00000000
ENDCHAR
STARTCHAR U+00EC
ENCODING 236
SWIDTH 1000 0
DWIDTH 18 0
BBX 31 40 -6 -8
BITMAP
00000000
00000000
00000000
00000000
0003F000
0003F000
0007E000
0007E000
00007E00
0000FC00
0000FC00
0000FC00
0007E000
0007E000
0007E000
000FC000
0003C000
0003C000
00078000
00078000
00078000
000F0000
000F0000
000F0000
001E0000
001E0000
001E0000
003C0000
03FFC000
03FFC000
07FF8000
07FF8000
00000000
00000000
00000000
00000000
00000000
00000000
00000000
00000000
ENDCHAR
STARTCHAR U+00EB
ENCODING 235
SWIDTH 1000 0
DWIDTH 18 0
BBX 31 40 -6 -8
BITMAP
00000000
00000000
00000000
00000000
0003C3C0
0003C3C0
00078780
00078780
00000000
00000000
00000000
00000000
001FFE00
001FFE00
001FFE00
003FFC00
00F00F00
00F00F00
01E01E00
01E01E00
01FFFE00
03FFFC00
03FFFC00
03FFFC00
07800000
07800000
07800000
0F000000
03FFC000
03FFC000
07FF8000
07FF8000
00000000
00000000
00000000
00000000
00000000
00000000
00000000
00000000
ENDCHAR
STARTCHAR U+00EA
ENCODING 234
SWIDTH 1000 0
DWIDTH 18 0
BBX 31 40 -6 -8
BITMAP
00007F80
00007F80
00007F80
0000FF00
0003C3C0
0003C3C0
00078780
00078780
00000000
00000000
00000000
00000000
001FFE00
001FFE00
001FFE00
003FFC00
00F00F00
00F00F00
01E01E00
01E01E00
01FFFE00
03FFFC00
03FFFC00
03FFFC00
07800000
07800000
07800000
0F000000
03FFC000
03FFC000
07FF8000
07FF8000
00000000
00000000
00000000
00000000
00000000
00000000
00000000
00000000
ENDCHAR
STARTCHAR U+00E9
ENCODING 233
SWIDTH 1000 0
DWIDTH 18 0
BBX 31 40 -6 -8
BITMAP
00000000
00000000
00000000
00000000
00003F00
00003F00
00007E00
00007E00
0007E000
000FC000
000FC000
000FC000
001FFE00
001FFE00
001FFE00
003FFC00
00F00F00
00F00F00
01E01E00
01E01E00
01FFFE00
03FFFC00
03FFFC00
03FFFC00
07800000
07800000
07800000
0F000000
03FFC000
03FFC000
07FF8000
07FF8000
00000000
00000000
00000000
00000000
00000000
00000000
00000000
00000000
ENDCHAR
STARTCHAR U+00E8
ENCODING 232
SWIDTH 1000 0
DWIDTH 18 0
BBX 31 40 -6 -8
BITMAP
00000000
00000000
00000000
00000000
0000FC00
0000FC00
0001F800
0001F800
00001F80
00003F00
00003F00
00003F00
001FFE00
001FFE00
001FFE00
003FFC00
00F00F00
00F00F00
01E01E00
01E01E00
01FFFE00
03FFFC00
03FFFC00
03FFFC00
07800000
07800000
07800000
0F000000
03FFC000
03FFC000
07FF8000
07FF8000
00000000
00000000
00000000
00000000
00000000
00000000
00000000
00000000
ENDCHAR
STARTCHAR U+00E7
ENCODING 231
SWIDTH 1000 0
DWIDTH 18 0
BBX 31 40 -6 -8
BITMAP
00000000
00000000
00000000
00000000
00000000
00000000
00000000
00000000
00000000
00000000
00000000
00000000
001FFE00
001FFE00
001FFE00
003FFC00
00F00F00
00F00F00
01E01E00
01E01E00
01E00000
03C00000
03C00000
03C00000
07807800
07807800
07807800
0F00F000
03FFC000
03FFC000
07FF8000
07FF8000
001E0000
003C0000
003C0000
003C0000
07F80000
07F80000
07F80000
0FF00000
ENDCHAR
STARTCHAR U+00E6
ENCODING 230
SWIDTH 1000 0
DWIDTH 18 0
BBX 31 40 -6 -8
BITMAP
00000000
00000000
00000000
00000000
00000000
00000000
00000000
00000000
00000000
00000000
00000000
00000000
001FFE00
001FFE00
001FFE00
003FFC00
0003CF00
0003CF00
00079E00
00079E00
007FFE00
00FFFC00
00FFFC00
00FFFC00
079E0000
079E0000
079E0000
0F3C0000
03FFF000
03FFF000
07FFE000
07FFE000
00000000
00000000
00000000
00000000
00000000
00000000
00000000
00000000
ENDCHAR
STARTCHAR U+00E5
ENCODING 229
SWIDTH 1000 0
DWIDTH 18 0
BBX 31 40 -6 -8
BITMAP
00007F80
00007F80
00007F80
0000FF00
0003C3C0
0003C3C0
00078780
00078780
0001FE00
0003FC00
0003FC00
0003FC00
001FFE00
001FFE00
001FFE00
003FFC00
00000F00
00000F00
00001E00
00001E00
007FFE00
00FFFC00
00FFFC00
00FFFC00
0781F800
0781F800
0781F800
0F03F000
03FFF000
03FFF000
07FFE000
07FFE000
00000000
00000000
00000000
00000000
00000000
00000000
00000000
00000000
ENDCHAR
STARTCHAR U+00E4
ENCODING 228
SWIDTH 1000 0
DWIDTH 18 0
BBX 31 40 -6 -8
BITMAP
00000000
00000000
00000000
00000000
0003C3C0
0003C3C0
00078780
00078780
00000000
00000000
00000000
00000000
001FFE00
001FFE00
001FFE00
003FFC00
00000F00
00000F00
00001E00
00001E00
007FFE00
00FFFC00
00FFFC00
00FFFC00
0781F800
0781F800
0781F800
0F03F000
03FFF000
03FFF000
07FFE000
07FFE000
00000000
00000000
00000000
00000000
00000000
00000000
00000000
00000000
ENDCHAR
STARTCHAR U+00E3
ENCODING 227
SWIDTH 1000 0
DWIDTH 18 0
BBX 31 40 -6 -8
BITMAP
00007E78
00007E78
00007E78
0000FCF0
0003CFC0
0003CFC0
00079F80
00079F80
00000000
00000000
00000000
00000000
001FFE00
001FFE00
001FFE00
003FFC00
00000F00
00000F00
00001E00
00001E00
007FFE00
00FFFC00
00FFFC00
00FFFC00
0781F800
0781F800
0781F800
0F03F000
03FFF000
03FFF000
07FFE000
07FFE000
00000000
00000000
00000000
00000000
00000000
00000000
00000000
00000000
ENDCHAR
STARTCHAR U+00E2
ENCODING 226
SWIDTH 1000 0
DWIDTH 18 0
BBX 31 40 -6 -8
BITMAP
00007F80
00007F80
00007F80
0000FF00
0003C3C0
0003C3C0
00078780
00078780
00000000
00000000
00000000
00000000
001FFE00
001FFE00
001FFE00
003FFC00
00000F00
00000F00
00001E00
00001E00
007FFE00
00FFFC00
00FFFC00
00FFFC00
0781F800
0781F800
0781F800
0F03F000
03FFF000
03FFF000
07FFE000
07FFE000
00000000
00000000
00000000
00000000
00000000
00000000
00000000
00000000
ENDCHAR
STARTCHAR U+00E1
ENCODING 225
SWIDTH 1000 0
DWIDTH 18 0
BBX 31 40 -6 -8
BITMAP
00000000
00000000
00000000
00000000
00003F00
00003F00
00007E00
00007E00
0007E000
000FC000
000FC000
000FC000
001FFE00
001FFE00
001FFE00
003FFC00
00000F00
00000F00
00001E00
00001E00
007FFE00
00FFFC00
00FFFC00
00FFFC00
0781F800
0781F800
0781F800
0F03F000
03FFF000
03FFF000
07FFE000
07FFE000
00000000
00000000
00000000
00000000
00000000
00000000
00000000
00000000
ENDCHAR
STARTCHAR U+00E0
ENCODING 224
SWIDTH 1000 0
DWIDTH 18 0
BBX 31 40 -6 -8
BITMAP
00000000
00000000
00000000
00000000
0000FC00
0000FC00
0001F800
0001F800
00001F80
00003F00
00003F00
00003F00
001FFE00
001FFE00
001FFE00
003FFC00
00000F00
00000F00
00001E00
00001E00
007FFE00
00FFFC00
00FFFC00
00FFFC00
0781F800
0781F800
0781F800
0F03F000
03FFF000
03FFF000
07FFE000
07FFE000
00000000
00000000
00000000
00000000
00000000
00000000
00000000
00000000
ENDCHAR
STARTCHAR U+00DF
ENCODING 223
SWIDTH 1000 0
DWIDTH 18 0
BBX 31 40 -6 -8
BITMAP
00000000
00000000
00000000
00000000
0000FF00
0000FF00
0001FE00
0001FE00
00078780
000F0F00
000F0F00
000F0F00
00781E00
00781E00
00781E00
00F03C00
00FFF000
00FFF000
01FFE000
01FFE000
01E07800
03C0F000
03C0F000
03C0F000
07F87800
07F87800
07F87800
0FF0F000
0F3FC000
0F3FC000
1E7F8000
1E7F8000
1E000000
3C000000
3C000000
3C000000
00000000
00000000
00000000
00000000
ENDCHAR
STARTCHAR U+00DE
ENCODING 222
SWIDTH 1000 0
DWIDTH 18 0
BBX 31 40 -6 -8
BITMAP
00000000
00000000
00000000
00000000
000FC000
000FC000
001F8000
001F8000
0007FF80
000FFF00
000FFF00
000FFF00
001E0780
001E0780
001E0780
003C0F00
003C0F00
003C0F00
00781E00
00781E00
00781E00
00F03C00
00F03C00
00F03C00
01FFE000
01FFE000
01FFE000
03FFC000
0FC00000
0FC00000
1F800000
1F800000
00000000
00000000
00000000
00000000
00000000
00000000
00000000
00000000
ENDCHAR
STARTCHAR U+0178
ENCODING 376
SWIDTH 1000 0
DWIDTH 18 0
BBX 31 40 -6 -8
BITMAP
0001E1E0
0001E1E0
0001E1E0
0003C3C0
00000000
00000000
00000000
00000000
001E01E0
003C03C0
003C03C0
003C03C0
001E1E00
001E1E00
001E1E00
003C3C00
000FF000
000FF000
001FE000
001FE000
00078000
000F0000
000F0000
000F0000
001E0000
001E0000
001E0000
003C0000
003C0000
003C0000
00780000
00780000
00000000
00000000
00000000
00000000
00000000
00000000
00000000
00000000
ENDCHAR
STARTCHAR U+00DC
ENCODING 220
SWIDTH 1000 0
DWIDTH 18 0
BBX 31 40 -6 -8
BITMAP
0001E1E0
0001E1E0
0001E1E0
0003C3C0
00000000
00000000
00000000
00000000
001E01E0
003C03C0
003C03C0
003C03C0
00780780
00780780
00780780
00F00F00
00F00F00
00F00F00
01E01E00
01E01E00
01E01E00
03C03C00
03C03C00
03C03C00
07807800
07807800
07807800
0F00F000
03FFC000
03FFC000
07FF8000
07FF8000
00000000
00000000
00000000
00000000
00000000
00000000
00000000
00000000
ENDCHAR
STARTCHAR U+00DB
ENCODING 219
SWIDTH 1000 0
DWIDTH 18 0
BBX 31 40 -6 -8
BITMAP
00001E00
00001E00
00001E00
00003C00
0000FF00
0000FF00
0001FE00
0001FE00
001E02E0
003C03C0
003C03C0
003C03C0
00780780
00780780
00780780
00F00F00
00F00F00
00F00F00
01E01E00
01E01E00
01E01E00
03C03C00
03C03C00
03C03C00
07807800
07807800
07807800
0F00F000
03FFC000
03FFC000
07FF8000
07FF8000
00000000
00000000
00000000
00000000
00000000
00000000
00000000
00000000
ENDCHAR
STARTCHAR U+00DA
ENCODING 218
SWIDTH 1000 0
DWIDTH 18 0
BBX 31 40 -6 -8
BITMAP
000007E0
000007E0
000007E0
00000FC0
0000FC00
0000FC00
0001F800
0001F800
001E01E0
003C03C0
003C03C0
003C03C0
00780780
00780780
00780780
00F00F00
00F00F00
00F00F00
01E01E00
01E01E00
01E01E00
03C03C00
03C03C00
03C03C00
07807800
07807800
07807800
0F00F000
03FFC000
03FFC000
07FF8000
07FF8000
00000000
00000000
00000000
00000000
00000000
00000000
00000000
00000000
ENDCHAR
STARTCHAR U+00D9
ENCODING 217
SWIDTH 1000 0
DWIDTH 18 0
BBX 31 40 -6 -8
BITMAP
0001F800
0001F800
0001F800
0003F000
00003F00
00003F00
00007E00
00007E00
001E02E0
003C03C0
003C03C0
003C03C0
00780780
00780780
00780780
00F00F00
00F00F00
00F00F00
01E01E00
01E01E00
01E01E00
03C03C00
03C03C00
03C03C00
07807800
07807800
07807800
0F00F000
03FFC000
03FFC000
07FF8000
07FF8000
00000000
00000000
00000000
00000000
00000000
00000000
00000000
00000000
ENDCHAR
STARTCHAR U+00D8
ENCODING 216
SWIDTH 1000 0
DWIDTH 18 0
BBX 31 40 -6 -8
BITMAP
00000078
00000078
00000078
000000F0
0003FFC0
0003FFC0
0007FF80
0007FF80
001E07E0
003C0FC0
003C0FC0
003C0FC0
00787F80
00787F80
00787F80
00F0FF00
00F3CF00
00F3CF00
01E79E00
01E79E00
01FE1E00
03FC3C00
03FC3C00
03FC3C00
07E07800
07E07800
07E07800
0FC0F000
03FFC000
03FFC000
07FF8000
07FF8000
1E000000
3C000000
3C000000
3C000000
00000000
00000000
00000000
00000000
ENDCHAR
STARTCHAR U+0152
ENCODING 338
SWIDTH 1000 0
DWIDTH 18 0
BBX 31 40 -6 -8
BITMAP
00000000
00000000
00000000
00000000
0003FFF0
0003FFF0
0007FFE0
0007FFE0
001E7800
003CF000
003CF000
003CF000
0079E000
0079E000
0079E000
00F3C000
00F3FC00
00F3FC00
01E7F800
01E7F800
01E78000
03CF0000
03CF0000
03CF0000
079E0000
079E0000
079E0000
0F3C0000
03FFF000
03FFF000
07FFE000
07FFE000
00000000
00000000
00000000
00000000
00000000
00000000
00000000
00000000
ENDCHAR
STARTCHAR U+00D6
ENCODING 214
SWIDTH 1000 0
DWIDTH 18 0
BBX 31 40 -6 -8
BITMAP
0001E1E0
0001E1E0
0001E1E0
0003C3C0
00000000
00000000
00000000
00000000
0007FF80
000FFF00
000FFF00
000FFF00
00780780
00780780
00780780
00F00F00
00F00F00
00F00F00
01E01E00
01E01E00
01E01E00
03C03C00
03C03C00
03C03C00
07807800
07807800
07807800
0F00F000
03FFC000
03FFC000
07FF8000
07FF8000
00000000
00000000
00000000
00000000
00000000
00000000
00000000
00000000
ENDCHAR
STARTCHAR U+00D5
ENCODING 213
SWIDTH 1000 0
DWIDTH 18 0
BBX 31 40 -6 -8
BITMAP
0001F9E0
0001F9E0
0001F9E0
0003F3C0
000F3F00
000F3F00
001E7E00
001E7E00
0007FF80
000FFF00
000FFF00
000FFF00
00780780
00780780
00780780
00F00F00
00F00F00
00F00F00
01E01E00
01E01E00
01E01E00
03C03C00
03C03C00
03C03C00
07807800
07807800
07807800
0F00F000
03FFC000
03FFC000
07FF8000
07FF8000
00000000
00000000
00000000
00000000
00000000
00000000
00000000
00000000
ENDCHAR
STARTCHAR U+00D4
ENCODING 212
SWIDTH 1000 0
DWIDTH 18 0
BBX 31 40 -6 -8
BITMAP
00007F80
00007F80
00007F80
0000FF00
0003C3C0
0003C3C0
00078780
00078780
0007FF80
000FFF00
000FFF00
000FFF00
00780780
00780780
00780780
00F00F00
00F00F00
00F00F00
01E01E00
01E01E00
01E01E00
03C03C00
03C03C00
03C03C00
07807800
07807800
07807800
0F00F000
03FFC000
03FFC000
07FF8000
07FF8000
00000000
00000000
00000000
00000000
00000000
00000000
00000000
00000000
ENDCHAR
STARTCHAR U+00D3
ENCODING 211
SWIDTH 1000 0
DWIDTH 18 0
BBX 31 40 -6 -8
BITMAP
00001F80
00001F80
00001F80
00003F00
0003F000
0003F000
0007E000
0007E000
0007FF80
000FFF00
000FFF00
000FFF00
00780780
00780780
00780780
00F00F00
00F00F00
00F00F00
01E01E00
01E01E00
01E01E00
03C03C00
03C03C00
03C03C00
07807800
07807800
07807800
0F00F000
03FFC000
03FFC000
07FF8000
07FF8000
00000000
00000000
00000000
00000000
00000000
00000000
00000000
00000000
ENDCHAR
STARTCHAR U+00D2
ENCODING 210
SWIDTH 1000 0
DWIDTH 18 0
BBX 31 40 -6 -8
BITMAP
00007E00
00007E00
00007E00
0000FC00
00000FC0
00000FC0
00001F80
00001F80
0007FF80
000FFF00
000FFF00
000FFF00
00780780
00780780
00780780
00F00F00
00F00F00
00F00F00
01E01E00
01E01E00
01E01E00
03C03C00
03C03C00
03C03C00
07807800
07807800
07807800
0F00F000
03FFC000
03FFC000
07FF8000
07FF8000
00000000
00000000
00000000
00000000
00000000
00000000
00000000
00000000
ENDCHAR
STARTCHAR U+00D1
ENCODING 209
SWIDTH 1000 0
DWIDTH 18 0
BBX 31 40 -6 -8
BITMAP
00007E78
00007E78
00007E78
0000FCF0
0003CFC0
0003CFC0
00079F80
00079F80
001F81E0
003F03C0
003F03C0
003F03C0
007F8780
007F8780
007F8780
00FF0F00
00F3CF00
00F3CF00
01E79E00
01E79E00
01E1FE00
03C3FC00
03C3FC00
03C3FC00
0781F800
0781F800
0781F800
0F03F000
0F00F000
0F00F000
1E01E000
1E01E000
00000000
00000000
00000000
00000000
00000000
00000000
00000000
00000000
ENDCHAR
STARTCHAR U+00D0
ENCODING 208
SWIDTH 1000 0
DWIDTH 18 0
BBX 31 40 -6 -8
BITMAP
00000000
00000000
00000000
00000000
000FFF00
000FFF00
001FFE00
001FFE00
00078780
000F0F00
000F0F00
000F0F00
001E0780
001E0780
001E0780
003C0F00
00FFCF00
00FFCF00
01FF9E00
01FF9E00
00781E00
00F03C00
00F03C00
00F03C00
01E1E000
01E1E000
01E1E000
03C3C000
0FFF0000
0FFF0000
1FFE0000
1FFE0000
00000000
00000000
00000000
00000000
00000000
00000000
00000000
00000000
ENDCHAR
STARTCHAR U+00CF
ENCODING 207
SWIDTH 1000 0
DWIDTH 18 0
BBX 31 40 -6 -8
BITMAP
0001E1E0
0001E1E0
0001E1E0
0003C3C0
00000000
00000000
00000000
00000000
0007FF80
000FFF00
000FFF00
000FFF00
0001E000
0001E000
0001E000
0003C000
0003C000
0003C000
00078000
00078000
00078000
000F0000
000F0000
000F0000
001E0000
001E0000
001E0000
003C0000
03FFC000
03FFC000
07FF8000
07FF8000
00000000
00000000
00000000
00000000
00000000
00000000
00000000
00000000
ENDCHAR
STARTCHAR U+00CE
ENCODING 206
SWIDTH 1000 0
DWIDTH 18 0
BBX 31 40 -6 -8
BITMAP
00007F80
00007F80
00007F80
0000FF00
0003C3C0
0003C3C0
00078780
00078780
0007FF80
000FFF00
000FFF00
000FFF00
0001E000
0001E000
0001E000
0003C000
0003C000
0003C000
00078000
00078000
00078000
000F0000
000F0000
000F0000
001E0000
001E0000
001E0000
003C0000
03FFC000
03FFC000
07FF8000
07FF8000
00000000
00000000
00000000
00000000
00000000
00000000
00000000
00000000
ENDCHAR
STARTCHAR U+00CD
ENCODING 205
SWIDTH 1000 0
DWIDTH 18 0
BBX 31 40 -6 -8
BITMAP
00001F80
00001F80
00001F80
00003F00
0003F000
0003F000
0007E000
0007E000
0007FF80
000FFF00
000FFF00
000FFF00
0001E000
0001E000
0001E000
0003C000
0003C000
0003C000
00078000
00078000
00078000
000F0000
000F0000
000F0000
001E0000
001E0000
001E0000
003C0000
03FFC000
03FFC000
07FF8000
07FF8000
00000000
00000000
00000000
00000000
00000000
00000000
00000000
00000000
ENDCHAR
STARTCHAR U+00CC
ENCODING 204
SWIDTH 1000 0
DWIDTH 18 0
BBX 31 40 -6 -8
BITMAP
00007E00
00007E00
00007E00
0000FC00
00000FC0
00000FC0
00001F80
00001F80
0007FF80
000FFF00
000FFF00
000FFF00
0001E000
0001E000
0001E000
0003C000
0003C000
0003C000
00078000
00078000
00078000
000F0000
000F0000
000F0000
001E0000
001E0000
001E0000
003C0000
03FFC000
03FFC000
07FF8000
07FF8000
00000000
00000000
00000000
00000000
00000000
00000000
00000000
00000000
ENDCHAR
STARTCHAR U+00CB
ENCODING 203
SWIDTH 1000 0
DWIDTH 18 0
BBX 31 40 -6 -8
BITMAP
0001E1E0
0001E1E0
0001E1E0
0003C3C0
00000000
00000000
00000000
00000000
001FFFE0
003FFFC0
003FFFC0
003FFFC0
00780000
00780000
00780000
00F00000
00FFF000
00FFF000
01FFE000
01FFE000
01E00000
03C00000
03C00000
03C00000
07800000
07800000
07800000
0F000000
0FFFF000
0FFFF000
1FFFE000
1FFFE000
00000000
00000000
00000000
00000000
00000000
00000000
00000000
00000000
ENDCHAR
STARTCHAR U+00CA
ENCODING 202
SWIDTH 1000 0
DWIDTH 18 0
BBX 31 40 -6 -8
BITMAP
00007F80
00007F80
00007F80
0000FF00
0003C3C0
0003C3C0
00078780
00078780
001FFFE0
003FFFC0
003FFFC0
003FFFC0
00780000
00780000
00780000
00F00000
00FFC000
00FFC000
01FF8000
01FF8000
01E00000
03C00000
03C00000
03C00000
07800000
07800000
07800000
0F000000
0FFFF000
0FFFF000
1FFFE000
1FFFE000
00000000
00000000
00000000
00000000
00000000
00000000
00000000
00000000
ENDCHAR
STARTCHAR U+00C9
ENCODING 201
SWIDTH 1000 0
DWIDTH 18 0
BBX 31 40 -6 -8
BITMAP
000007E0
000007E0
000007E0
00000FC0
0000FC00
0000FC00
0001F800
0001F800
001FFFE0
003FFFC0
003FFFC0
003FFFC0
00780000
00780000
00780000
00F00000
00FFF000
00FFF000
01FFE000
01FFE000
01E00000
03C00000
03C00000
03C00000
07800000
07800000
07800000
0F000000
0FFFF000
0FFFF000
1FFFE000
1FFFE000
00000000
00000000
00000000
00000000
00000000
00000000
00000000
00000000
ENDCHAR
STARTCHAR U+00C8
ENCODING 200
SWIDTH 1000 0
DWIDTH 18 0
BBX 31 40 -6 -8
BITMAP
0001F800
0001F800
0001F800
0003F000
00003F00
00003F00
00007E00
00007E00
001FFFE0
003FFFC0
003FFFC0
003FFFC0
00780000
00780000
00780000
00F00000
00FFF000
00FFF000
01FFE000
01FFE000
01E00000
03C00000
03C00000
03C00000
07800000
07800000
07800000
0F000000
0FFFF000
0FFFF000
1FFFE000
1FFFE000
00000000
00000000
00000000
00000000
00000000
00000000
00000000
00000000
ENDCHAR
STARTCHAR U+00C7
ENCODING 199
SWIDTH 1000 0
DWIDTH 18 0
BBX 31 40 -6 -8
BITMAP
00000000
00000000
00000000
00000000
0000FFC0
0000FFC0
0001FF80
0001FF80
000781E0
000F03C0
000F03C0
000F03C0
00780000
00780000
00780000
00F00000
00F00000
00F00000
01E00000
01E00000
01E00000
03C00000
03C00000
03C00000
01E07800
01E07800
01E07800
03C0F000
00FFC000
00FFC000
01FF8000
01FF8000
001E0000
003C0000
003C0000
003C0000
07F80000
07F80000
07F80000
0FF00000
ENDCHAR
STARTCHAR U+00C6
ENCODING 198
SWIDTH 1000 0
DWIDTH 18 0
BBX 31 40 -6 -8
BITMAP
00000000
00000000
00000000
00000000
0000FFF0
0000FFF0
0001FFE0
0001FFE0
0007F800
000FF000
000FF000
000FF000
0079E000
0079E000
0079E000
00F3C000
00F3FC00
00F3FC00
01E7F800
01E7F800
01FF8000
03FF0000
03FF0000
03FF0000
079E0000
079E0000
079E0000
0F3C0000
0F3FF000
0F3FF000
1E7FE000
1E7FE000
00000000
00000000
00000000
00000000
00000000
00000000
00000000
00000000
ENDCHAR
STARTCHAR U+00C5
ENCODING 197
SWIDTH 1000 0
DWIDTH 18 0
BBX 31 40 -6 -8
BITMAP
00007F80
00007F80
00007F80
0000FF00
0003C3C0
0003C3C0
00078780
00078780
0001FE00
0003FC00
0003FC00
0003FC00
0007F800
0007F800
0007F800
000FF000
003C3C00
003C3C00
00787800
00787800
01FFFE00
03FFFC00
03FFFC00
03FFFC00
07807800
07807800
07807800
0F00F000
0F00F000
0F00F000
1E01E000
1E01E000
00000000
00000000
00000000
00000000
00000000
00000000
00000000
00000000
ENDCHAR
STARTCHAR U+00C4
ENCODING 196
SWIDTH 1000 0
DWIDTH 18 0
BBX 31 40 -6 -8
BITMAP
0001E1E0
0001E1E0
0001E1E0
0003C3C0
00000000
00000000
00000000
00000000
00007800
0000F000
0000F000
0000F000
0007F800
0007F800
0007F800
000FF000
003C3C00
003C3C00
00787800
00787800
01FFFE00
03FFFC00
03FFFC00
03FFFC00
07807800
07807800
07807800
0F00F000
0F00F000
0F00F000
1E01E000
1E01E000
00000000
00000000
00000000
00000000
00000000
00000000
00000000
00000000
ENDCHAR
STARTCHAR U+00C3
ENCODING 195
SWIDTH 1000 0
DWIDTH 18 0
BBX 31 40 -6 -8
BITMAP
00007E78
00007E78
00007E78
0000FCF0
0003CFC0
0003CFC0
00079F80
00079F80
0000B800
0000F000
0000F000
0000F000
0007F800
0007F800
0007F800
000FF000
003C3C00
003C3C00
00787800
00787800
01FFFE00
03FFFC00
03FFFC00
03FFFC00
07807800
07807800
07807800
0F00F000
0F00F000
0F00F000
1E01E000
1E01E000
00000000
00000000
00000000
00000000
00000000
00000000
00000000
00000000
ENDCHAR
STARTCHAR U+00C2
ENCODING 194
SWIDTH 1000 0
DWIDTH 18 0
BBX 31 40 -6 -8
BITMAP
00007F80
00007F80
00007F80
0000FF00
0003C3C0
0003C3C0
00078780
00078780
0000B800
0000F000
0000F000
0000F000
0007F800
0007F800
0007F800
000FF000
003C3C00
003C3C00
00787800
00787800
01FFFE00
03FFFC00
03FFFC00
03FFFC00
07807800
07807800
07807800
0F00F000
0F00F000
0F00F000
1E01E000
1E01E000
00000000
00000000
00000000
00000000
00000000
00000000
00000000
00000000
ENDCHAR
STARTCHAR U+00C1
ENCODING 193
SWIDTH 1000 0
DWIDTH 18 0
BBX 31 40 -6 -8
BITMAP
00001F80
00001F80
00001F80
00003F00
0003F000
0003F000
0007E000
0007E000
00007800
0000F000
0000F000
0000F000
0007F800
0007F800
0007F800
000FF000
003C3C00
003C3C00
00787800
00787800
01FFFE00
03FFFC00
03FFFC00
03FFFC00
07807800
07807800
07807800
0F00F000
0F00F000
0F00F000
1E01E000
1E01E000
00000000
00000000
00000000
00000000
00000000
00000000
00000000
00000000
ENDCHAR
STARTCHAR U+00C0
ENCODING 192
SWIDTH 1000 0
DWIDTH 18 0
BBX 31 40 -6 -8
BITMAP
00007E00
00007E00
00007E00
0000FC00
00000FC0
00000FC0
00001F80
00001F80
00007800
0000F000
0000F000
0000F000
0007F800
0007F800
0007F800
000FF000
003C3C00
003C3C00
00787800
00787800
01FFFE00
03FFFC00
03FFFC00
03FFFC00
07807800
07807800
07807800
0F00F000
0F00F000
0F00F000
1E01E000
1E01E000
00000000
00000000
00000000
00000000
00000000
00000000
00000000
00000000
ENDCHAR
STARTCHAR U+00BF
ENCODING 191
SWIDTH 1000 0
DWIDTH 18 0
BBX 31 40 -6 -8
BITMAP
00000000
00000000
00000000
00000000
00003C00
00003C00
00007800
00007800
00000000
00000000
00000000
00000000
0001E000
0001E000
0001E000
0003C000
0003C000
0003C000
00078000
00078000
007E0000
00FC0000
00FC0000
00FC0000
07807800
07807800
07807800
0F00F000
03FFC000
03FFC000
07FF8000
07FF8000
00000000
00000000
00000000
00000000
00000000
00000000
00000000
00000000
ENDCHAR
STARTCHAR U+00BE
ENCODING 190
SWIDTH 1000 0
DWIDTH 18 0
BBX 31 40 -6 -8
BITMAP
0007FE00
0007FE00
0007FE00
000FFC00
00003C00
00003C00
00007800
00007800
0007EB80
000FCF00
000FCF00
000FCF00
0001F800
0001F800
0001F800
0003F000
00FFC000
00FFC000
01FF8000
01FF8000
001EB800
003CF000
003CF000
003CF000
01E7E000
01E7E000
01E7E000
03AFC000
0F3FC000
0F3FC000
1E7F8000
1E7F8000
02FFE000
03FFC000
03FFC000
03FFC000
001E0000
001E0000
001E0000
003C0000
ENDCHAR
STARTCHAR U+00BD
ENCODING 189
SWIDTH 1000 0
DWIDTH 18 0
BBX 31 40 -6 -8
BITMAP
00000000
00000000
00000000
00000000
0003C000
0003C000
00078000
00078000
001F8780
003F0F00
003F0F00
003F0F00
001E7800
001E7800
001E7800
003CF000
003FC000
003FC000
007F8000
007F8000
001FF800
003FF000
003FF000
003FF000
01FE7800
01FE7800
01FE7800
03FAF000
0F03C000
0F03C000
1E078000
1E078000
001E0000
003C0000
003C0000
003C0000
01FF8000
01FF8000
01FF8000
03FF0000
ENDCHAR
STARTCHAR U+00BC
ENCODING 188
SWIDTH 1000 0
DWIDTH 18 0
BBX 31 40 -6 -8
BITMAP
00000000
00000000
00000000
00000000
0003C000
0003C000
00078000
00078000
001F8780
003F0F00
003F0F00
003F0F00
001E7800
001E7800
001E7800
003CF000
003FC000
003FC000
007F8000
007F8000
001EB800
003CF000
003CF000
003CF000
01E7E000
01E7E000
01E7E000
03AFC000
0F3FC000
0F3FC000
1E7F8000
1E7F8000
02FFE000
03FFC000
03FFC000
03FFC000
001E0000
001E0000
001E0000
003C0000
ENDCHAR
STARTCHAR U+00BB
ENCODING 187
SWIDTH 1000 0
DWIDTH 18 0
BBX 31 40 -6 -8
BITMAP
00000000
00000000
00000000
00000000
000F3C00
000F3C00
001E7800
001E7800
00079E00
000F3C00
000F3C00
000F7C00
00079E00
00079E00
0007AE00
000F3C00
0003CF00
0003CF00
00079E00
00079E00
001EB800
003CF000
003CF000
003CF000
01E78000
01E78000
01E78000
03AF0000
0F3C0000
0F3C0000
1E780000
1E780000
00000000
00000000
00000000
00000000
00000000
00000000
00000000
00000000
ENDCHAR
STARTCHAR U+00BA
ENCODING 186
SWIDTH 1000 0
DWIDTH 18 0
BBX 31 40 -6 -8
BITMAP
00000000
00000000
00000000
00000000
0003FFC0
0003FFC0
0007FF80
0007FF80
001E01E0
003C03C0
003C03C0
003C03C0
00780780
00780780
00780780
00F00F00
00F00F00
00F00F00
01E01E00
01E01E00
007FF800
00FFF000
00FFF000
00FFF000
00000000
00000000
00000000
00000000
0FFFF000
0FFFF000
1FFFE000
1FFFE000
00000000
00000000
00000000
00000000
00000000
00000000
00000000
00000000
ENDCHAR
STARTCHAR U+00B9
ENCODING 185
SWIDTH 1000 0
DWIDTH 18 0
BBX 31 40 -6 -8
BITMAP
00001E00
00001E00
00001E00
00003C00
0000FC00
0000FC00
0001F800
0001F800
00007800
0000F000
0000F000
0000F000
0001E000
0001E000
0001E000
0003C000
000FF000
000FF000
001FE000
001FE000
00000000
00000000
00000000
00000000
00000000
00000000
00000000
00000000
00000000
00000000
00000000
00000000
00000000
00000000
00000000
00000000
00000000
00000000
00000000
00000000
ENDCHAR
STARTCHAR U+00B8
ENCODING 184
SWIDTH 1000 0
DWIDTH 18 0
BBX 31 40 -6 -8
BITMAP
00000000
00000000
00000000
00000000
00000000
00000000
00000000
00000000
00000000
00000000
00000000
00000000
00000000
00000000
00000000
00000000
00000000
00000000
00000000
00000000
00000000
00000000
00000000
00000000
00000000
00000000
00000000
00000000
00000000
00000000
00000000
00000000
001E0000
003C0000
003C0000
003C0000
07F80000
07F80000
07F80000
0FF00000
ENDCHAR
STARTCHAR U+2022
ENCODING 8226
SWIDTH 1000 0
DWIDTH 18 0
BBX 31 40 -6 -8
BITMAP
00000000
00000000
00000000
00000000
00000000
00000000
00000000
00000000
00000000
00000000
00000000
00000000
0007E000
0007E000
0007E000
000FC000
000FC000
000FC000
001F8000
001F8000
00000000
00000000
00000000
00000000
00000000
00000000
00000000
00000000
00000000
00000000
00000000
00000000
00000000
00000000
00000000
00000000
00000000
00000000
00000000
00000000
ENDCHAR
STARTCHAR U+00B6
ENCODING 182
SWIDTH 1000 0
DWIDTH 18 0
BBX 31 40 -6 -8
BITMAP
00000000
00000000
00000000
00000000
0003FFF0
0003FFF0
0007FFE0
0007FFE0
001F9FE0
003F3FC0
003F3FC0
003F3FC0
007E7F80
007E7F80
007E7F80
00FCFF00
003FFF00
003FFF00
007FFE00
007FFE00
0001FE00
0003FC00
0003FC00
0003FC00
0007F800
0007F800
0007F800
000FF000
000FF000
000FF000
001FE000
001FE000
00000000
00000000
00000000
00000000
00000000
00000000
00000000
00000000
ENDCHAR
STARTCHAR U+00B5
ENCODING 181
SWIDTH 1000 0
DWIDTH 18 0
BBX 31 40 -6 -8
BITMAP
00000000
00000000
00000000
00000000
00000000
00000000
00000000
00000000
00000000
00000000
00000000
00000000
001E0780
001E0780
001E0780
003C0F00
003C0F00
003C0F00
00781E00
00781E00
00781E00
00F03C00
00F03C00
00F03C00
01F9F800
01F9F800
01F9F800
03F3F000
03FFF000
03FFF000
07FFE000
07FFE000
07800000
0F000000
0F000000
0F000000
78000000
78000000
78000000
F0000000
ENDCHAR
STARTCHAR U+00B4
ENCODING 180
SWIDTH 1000 0
DWIDTH 18 0
BBX 31 40 -6 -8
BITMAP
00000000
00000000
00000000
00000000
00000FC0
00000FC0
00001F80
00001F80
00001E00
00003C00
00003C00
00003C00
0001E000
0001E000
0001E000
0003C000
00000000
00000000
00000000
00000000
00000000
00000000
00000000
00000000
00000000
00000000
00000000
00000000
00000000
00000000
00000000
00000000
00000000
00000000
00000000
00000000
00000000
00000000
00000000
00000000
ENDCHAR
STARTCHAR U+00B3
ENCODING 179
SWIDTH 1000 0
DWIDTH 18 0
BBX 31 40 -6 -8
BITMAP
0001FFE0
0001FFE0
0001FFE0
0003FFC0
000003C0
000003C0
00000780
00000780
00007E00
0000FC00
0000FC00
0000FC00
00001E00
00001E00
00001E00
00003C00
003FF000
003FF000
007FE000
007FE000
00000000
00000000
00000000
00000000
00000000
00000000
00000000
00000000
00000000
00000000
00000000
00000000
00000000
00000000
00000000
00000000
00000000
00000000
00000000
00000000
ENDCHAR
STARTCHAR U+00B2
ENCODING 178
SWIDTH 1000 0
DWIDTH 18 0
BBX 31 40 -6 -8
BITMAP
00007F80
00007F80
00007F80
0000FF00
0003C3C0
0003C3C0
00078780
00078780
0000BE00
0000FC00
0000FC00
0000FC00
00078000
00078000
00078000
000F0000
003FFC00
003FFC00
007FF800
007FF800
00000000
00000000
00000000
00000000
00000000
00000000
00000000
00000000
00000000
00000000
00000000
00000000
00000000
00000000
00000000
00000000
00000000
00000000
00000000
00000000
ENDCHAR
STARTCHAR U+00AF
ENCODING 175
SWIDTH 1000 0
DWIDTH 18 0
BBX 31 40 -6 -8
BITMAP
0001FFE0
0001FFE0
0001FFE0
0003FFC0
00000000
00000000
00000000
00000000
00000000
00000000
00000000
00000000
00000000
00000000
00000000
00000000
00000000
00000000
00000000
00000000
00000000
00000000
00000000
00000000
00000000
00000000
00000000
00000000
00000000
00000000
00000000
00000000
00000000
00000000
00000000
00000000
00000000
00000000
00000000
00000000
ENDCHAR
STARTCHAR U+00AE
ENCODING 174
SWIDTH 1000 0
DWIDTH 18 0
BBX 31 40 -6 -8
BITMAP
00000000
00000000
00000000
00000000
0000FF00
0000FF00
0001FE00
0001FE00
00078780
000F0F00
000F0F00
000F0F00
007FFF80
007FFF80
007FFF80
00FFFF00
00FF3F00
00FF3F00
01FE7E00
01FE7E00
01FFFE00
03FFFC00
03FFFC00
03FFFC00
07FE7800
07FE7800
07FE7800
0FFCF000
03FFC000
03FFC000
07FF8000
07FF8000
01FE0000
03FC0000
03FC0000
03FC0000
00000000
00000000
00000000
00000000
ENDCHAR
STARTCHAR U+00D7
ENCODING 215
SWIDTH 1000 0
DWIDTH 18 0
BBX 31 40 -6 -8
BITMAP
00000000
00000000
00000000
00000000
00000000
00000000
00000000
00000000
00078780
000F0F00
000F0F00
000F0F00
0007F800
0007F800
0007F800
000FF000
0003C000
0003C000
00078000
00078000
001FE000
003FC000
003FC000
003FC000
01E1E000
01E1E000
01E1E000
03C3C000
00000000
00000000
00000000
00000000
00000000
00000000
00000000
00000000
00000000
00000000
00000000
00000000
ENDCHAR
STARTCHAR U+00AC
ENCODING 172
SWIDTH 1000 0
DWIDTH 18 0
BBX 31 40 -6 -8
BITMAP
00000000
00000000
00000000
00000000
00000000
00000000
00000000
00000000
00000000
00000000
00000000
00000000
00000000
00000000
00000000
00000000
00000000
00000000
00000000
00000000
01FFFE00
03FFFC00
03FFFC00
03FFFC00
00007800
00007800
00007800
0000F000
0000F000
0000F000
0001E000
0001E000
00000000
00000000
00000000
00000000
00000000
00000000
00000000
00000000
ENDCHAR
STARTCHAR U+00AB
ENCODING 171
SWIDTH 1000 0
DWIDTH 18 0
BBX 31 40 -6 -8
BITMAP
00000000
00000000
00000000
00000000
00003CF0
00003CF0
000079E0
000079E0
0001EB80
0003CF00
0003CF00
0003CF00
001E7800
001E7800
001E7800
003AF000
00F3C000
00F3C000
01E78000
01E78000
0079E000
00F3C000
00F3C000
00F7C000
0079E000
0079E000
007AE000
00F3C000
003CF000
003CF000
0079E000
0079E000
00000000
00000000
00000000
00000000
00000000
00000000
00000000
00000000
ENDCHAR
STARTCHAR U+00AA
ENCODING 170
SWIDTH 1000 0
DWIDTH 18 0
BBX 31 40 -6 -8
BITMAP
00000000
00000000
00000000
00000000
0003FFC0
0003FFC0
0007FF80
0007FF80
000001E0
000003C0
000003C0
000003C0
001FFF80
001FFF80
001FFF80
003FFF00
00F03F00
00F03F00
01E07E00
01E07E00
007FFE00
00FFFC00
00FFFC00
00FFFC00
00000000
00000000
00000000
00000000
0FFFF000
0FFFF000
1FFFE000
1FFFE000
00000000
00000000
00000000
00000000
00000000
00000000
00000000
00000000
ENDCHAR
STARTCHAR U+00A9
ENCODING 169
SWIDTH 1000 0
DWIDTH 18 0
BBX 31 40 -6 -8
BITMAP
00000000
00000000
00000000
00000000
0000FF00
0000FF00
0001FE00
0001FE00
00078780
000F0F00
000F0F00
000F0F00
0079FF80
0079FF80
0079FF80
00F3FF00
00FF0F00
00FF0F00
01FE1E00
01FE1E00
01FE1E00
03FC3C00
03FC3C00
03FC3C00
079FF800
079FF800
07AFF800
0F3FF000
03C3C000
03C3C000
07878000
07878000
01FE0000
03FC0000
03FC0000
03FC0000
00000000
00000000
00000000
00000000
ENDCHAR
STARTCHAR U+00A4
ENCODING 164
SWIDTH 1000 0
DWIDTH 18 0
BBX 31 40 -6 -8
BITMAP
00000000
00000000
00000000
00000000
00000000
00000000
00000000
00000000
001E01E0
003C03C0
003C03C0
003C03C0
001FFE00
001FFE00
001FFE00
003FFC00
003C3C00
003C3C00
00787800
00787800
007FF800
00FFF000
00FFF000
00FFF000
07807800
07807800
07807800
0F00F000
00000000
00000000
00000000
00000000
00000000
00000000
00000000
00000000
00000000
00000000
00000000
00000000
ENDCHAR
STARTCHAR U+00A7
ENCODING 167
SWIDTH 1000 0
DWIDTH 18 0
BBX 31 40 -6 -8
BITMAP
00000000
00000000
00000000
00000000
0000FFC0
0000FFC0
0001FF80
0001FF80
00078000
000F0000
000F0000
000F0000
0007F800
0007F800
0007F800
000FF000
003C3C00
003C3C00
00787800
00787800
001FE000
003FC000
003FC000
003FC000
0001E000
0001E000
0001E000
0003C000
03FF0000
03FF0000
07FE0000
07FE0000
00000000
00000000
00000000
00000000
00000000
00000000
00000000
00000000
ENDCHAR
STARTCHAR U+00A6
ENCODING 166
SWIDTH 1000 0
DWIDTH 18 0
BBX 31 40 -6 -8
BITMAP
00000000
00000000
00000000
00000000
00003C00
00003C00
00007800
00007800
00007800
0000F000
0000F000
0000F000
0001E000
0001E000
0001E000
0003C000
00000000
00000000
00000000
00000000
00078000
000F0000
000F0000
000F0000
001E0000
001E0000
001E0000
003C0000
003C0000
003C0000
00780000
00780000
00000000
00000000
00000000
00000000
00000000
00000000
00000000
00000000
ENDCHAR
STARTCHAR U+00A5
ENCODING 165
SWIDTH 1000 0
DWIDTH 18 0
BBX 31 40 -6 -8
BITMAP
00000000
00000000
00000000
00000000
000F00F0
000F00F0
001E01E0
001E01E0
00078780
000F0F00
000F0F00
000F0F00
0007F800
0007F800
0007F800
000FF000
0003C000
0003C000
00078000
00078000
01FFFE00
03FFFC00
03FFFC00
03FFFC00
001E0000
001E0000
001E0000
003C0000
003C0000
003C0000
00780000
00780000
00000000
00000000
00000000
00000000
00000000
00000000
00000000
00000000
ENDCHAR
STARTCHAR U+00A8
ENCODING 168
SWIDTH 1000 0
DWIDTH 18 0
BBX 31 40 -6 -8
BITMAP
0001E1E0
0001E1E0
0001E1E0
0003C3C0
00000000
00000000
00000000
00000000
00000000
00000000
00000000
00000000
00000000
00000000
00000000
00000000
00000000
00000000
00000000
00000000
00000000
00000000
00000000
00000000
00000000
00000000
00000000
00000000
00000000
00000000
00000000
00000000
00000000
00000000
00000000
00000000
00000000
00000000
00000000
00000000
ENDCHAR
STARTCHAR U+00A2
ENCODING 162
SWIDTH 1000 0
DWIDTH 18 0
BBX 31 40 -6 -8
BITMAP
00000000
00000000
00000000
00000000
00000000
00000000
00000000
00000000
00007800
0000F000
0000F000
0000F000
001FFE00
001FFE00
001FFE00
003FFC00
00F3CF00
00F3CF00
01E79E00
01E79E00
01E78000
03CF0000
03CF0000
03CF0000
079E7800
079E7800
079E7800
0F3CF000
03FFC000
03FFC000
07FF8000
07FF8000
00780000
00F00000
00F00000
00F00000
00000000
00000000
00000000
00000000
ENDCHAR
STARTCHAR U+00A1
ENCODING 161
SWIDTH 1000 0
DWIDTH 18 0
BBX 31 40 -6 -8
BITMAP
00000000
00000000
00000000
00000000
00003C00
00003C00
00007800
00007800
00000000
00000000
00000000
00000000
0001E000
0001E000
0001E000
0003C000
0003C000
0003C000
00078000
00078000
00078000
000F0000
000F0000
000F0000
001E0000
001E0000
001E0000
003C0000
003C0000
003C0000
00780000
00780000
00000000
00000000
00000000
00000000
00000000
00000000
00000000
00000000
ENDCHAR
STARTCHAR U+201F
ENCODING 8223
SWIDTH 1000 0
DWIDTH 18 0
BBX 31 40 -6 -8
BITMAP
00000000
00000000
00000000
00000000
0003FFC0
0003FFC0
0007FF80
0007FF80
00079E00
000F3C00
000F3C00
000F7C00
00079E00
00079E00
00079E00
000F3C00
00000000
00000000
00000000
00000000
00000000
00000000
00000000
00000000
00000000
00000000
00000000
00000000
00000000
00000000
00000000
00000000
00000000
00000000
00000000
00000000
00000000
00000000
00000000
00000000
ENDCHAR
STARTCHAR U+201E
ENCODING 8222
SWIDTH 1000 0
DWIDTH 18 0
BBX 31 40 -6 -8
BITMAP
00000000
00000000
00000000
00000000
00000000
00000000
00000000
00000000
00000000
00000000
00000000
00000000
00000000
00000000
00000000
00000000
00000000
00000000
00000000
00000000
00000000
00000000
00000000
00000000
00000000
00000000
00000000
00000000
03CF0000
03CF0000
079E0000
079E0000
079E0000
0F3C0000
0F3C0000
0F3C0000
00000000
00000000
00000000
00000000
ENDCHAR
STARTCHAR U+201D
ENCODING 8221
SWIDTH 1000 0
DWIDTH 18 0
BBX 31 40 -6 -8
BITMAP
00000000
00000000
00000000
00000000
0003F3F0
0003F3F0
0007E7E0
0007E7E0
0001E1E0
0003C3C0
0003C3C0
0003C3C0
001E1E00
001E1E00
001E1E00
003C3C00
00000000
00000000
00000000
00000000
00000000
00000000
00000000
00000000
00000000
00000000
00000000
00000000
00000000
00000000
00000000
00000000
00000000
00000000
00000000
00000000
00000000
00000000
00000000
00000000
ENDCHAR
STARTCHAR U+201C
ENCODING 8220
SWIDTH 1000 0
DWIDTH 18 0
BBX 31 40 -6 -8
BITMAP
00000000
00000000
00000000
00000000
0000F0F0
0000F0F0
0001E1E0
0001E1E0
00078780
000F0F00
000F0F00
000F0F00
001F9F80
001F9F80
001F9F80
003F3F00
00000000
00000000
00000000
00000000
00000000
00000000
00000000
00000000
00000000
00000000
00000000
00000000
00000000
00000000
00000000
00000000
00000000
00000000
00000000
00000000
00000000
00000000
00000000
00000000
ENDCHAR
STARTCHAR U+201B
ENCODING 8219
SWIDTH 1000 0
DWIDTH 18 0
BBX 31 40 -6 -8
BITMAP
00000000
00000000
00000000
00000000
00003C00
00003C00
00007800
00007800
00007800
0000F000
0000F000
0000F000
0001E000
0001E000
0001E000
0003C000
00000000
00000000
00000000
00000000
00000000
00000000
00000000
00000000
00000000
00000000
00000000
00000000
00000000
00000000
00000000
00000000
00000000
00000000
00000000
00000000
00000000
00000000
00000000
00000000
ENDCHAR
STARTCHAR U+201A
ENCODING 8218
SWIDTH 1000 0
DWIDTH 18 0
BBX 31 40 -6 -8
BITMAP
00000000
00000000
00000000
00000000
00000000
00000000
00000000
00000000
00000000
00000000
00000000
00000000
00000000
00000000
00000000
00000000
00000000
00000000
00000000
00000000
00078000
000F0000
000F0000
000F0000
001E0000
001E0000
001E0000
003C0000
003C0000
003C0000
00780000
00780000
00000000
00000000
00000000
00000000
00000000
00000000
00000000
00000000
ENDCHAR
STARTCHAR U+2019
ENCODING 8217
SWIDTH 1000 0
DWIDTH 18 0
BBX 31 40 -6 -8
BITMAP
00000000
00000000
00000000
00000000
0003F000
0003F000
0007E000
0007E000
0001E000
0003C000
0003C000
0003C000
001E0000
001E0000
001E0000
003C0000
00000000
00000000
00000000
00000000
00000000
00000000
00000000
00000000
00000000
00000000
00000000
00000000
00000000
00000000
00000000
00000000
00000000
00000000
00000000
00000000
00000000
00000000
00000000
00000000
ENDCHAR
STARTCHAR U+2018
ENCODING 8216
SWIDTH 1000 0
DWIDTH 18 0
BBX 31 40 -6 -8
BITMAP
00000000
00000000
00000000
00000000
000000F0
000000F0
000001E0
000001E0
00000780
00000F00
00000F00
00000F00
00001F80
00001F80
00001F80
00003F00
00000000
00000000
00000000
00000000
00000000
00000000
00000000
00000000
00000000
00000000
00000000
00000000
00000000
00000000
00000000
00000000
00000000
00000000
00000000
00000000
00000000
00000000
00000000
00000000
ENDCHAR
STARTCHAR U+2017
ENCODING 8215
SWIDTH 1000 0
DWIDTH 18 0
BBX 31 40 -6 -8
BITMAP
00000000
00000000
00000000
00000000
00000000
00000000
00000000
00000000
00000000
00000000
00000000
00000000
00000000
00000000
00000000
00000000
00000000
00000000
00000000
00000000
00000000
00000000
00000000
00000000
00000000
00000000
00000000
00000000
0FFFF000
0FFFF000
1FFFE000
1FFFE000
00000000
00000000
00000000
00000000
7FFF8000
7FFF8000
7FFF8000
FFFF0000
ENDCHAR
STARTCHAR U+2016
ENCODING 8214
SWIDTH 1000 0
DWIDTH 18 0
BBX 31 40 -6 -8
BITMAP
00000000
00000000
00000000
00000000
00003FC0
00003FC0
00007F80
00007F80
00007F80
0000FF00
0000FF00
0000FF00
0001FE00
0001FE00
0001FE00
0003FC00
0003FC00
0003FC00
0007F800
0007F800
0007F800
000FF000
000FF000
000FF000
001FE000
001FE000
001FE000
003FC000
003FC000
003FC000
007F8000
007F8000
00000000
00000000
00000000
00000000
00000000
00000000
00000000
00000000
ENDCHAR
STARTCHAR U+2015
ENCODING 8213
SWIDTH 1000 0
DWIDTH 18 0
BBX 31 40 -6 -8
BITMAP
00000000
00000000
00000000
00000000
00000000
00000000
00000000
00000000
00000000
00000000
00000000
00000000
00000000
00000000
00000000
00000000
00FFFFC0
00FFFFC0
01FFFF80
01FFFF80
00000000
00000000
00000000
00000000
00000000
00000000
00000000
00000000
00000000
00000000
00000000
00000000
00000000
00000000
00000000
00000000
00000000
00000000
00000000
00000000
ENDCHAR
STARTCHAR U+2014
ENCODING 8212
SWIDTH 1000 0
DWIDTH 18 0
BBX 31 40 -6 -8
BITMAP
00000000
00000000
00000000
00000000
00000000
00000000
00000000
00000000
00000000
00000000
00000000
00000000
00000000
00000000
00000000
00000000
00FFFF00
00FFFF00
01FFFE00
01FFFE00
00000000
00000000
00000000
00000000
00000000
00000000
00000000
00000000
00000000
00000000
00000000
00000000
00000000
00000000
00000000
00000000
00000000
00000000
00000000
00000000
ENDCHAR
STARTCHAR U+2013
ENCODING 8211
SWIDTH 1000 0
DWIDTH 18 0
BBX 31 40 -6 -8
BITMAP
00000000
00000000
00000000
00000000
00000000
00000000
00000000
00000000
00000000
00000000
00000000
00000000
00000000
00000000
00000000
00000000
000FFC00
000FFC00
001FF800
001FF800
00000000
00000000
00000000
00000000
00000000
00000000
00000000
00000000
00000000
00000000
00000000
00000000
00000000
00000000
00000000
00000000
00000000
00000000
00000000
00000000
ENDCHAR
STARTCHAR U+2012
ENCODING 8210
SWIDTH 1000 0
DWIDTH 18 0
BBX 31 40 -6 -8
BITMAP
00000000
00000000
00000000
00000000
00000000
00000000
00000000
00000000
00000000
00000000
00000000
00000000
00000000
00000000
00000000
00000000
003FFC00
003FFC00
007FF800
007FF800
00000000
00000000
00000000
00000000
00000000
00000000
00000000
00000000
00000000
00000000
00000000
00000000
00000000
00000000
00000000
00000000
00000000
00000000
00000000
00000000
ENDCHAR
STARTCHAR U+2011
ENCODING 8209
SWIDTH 1000 0
DWIDTH 18 0
BBX 31 40 -6 -8
BITMAP
00000000
00000000
00000000
00000000
00000000
00000000
00000000
00000000
00000000
00000000
00000000
00000000
00000000
00000000
00000000
00000000
000FF000
000FF000
001FE000
001FE000
00000000
00000000
00000000
00000000
00000000
00000000
00000000
00000000
00000000
00000000
00000000
00000000
00000000
00000000
00000000
00000000
00000000
00000000
00000000
00000000
ENDCHAR
STARTCHAR U+2010
ENCODING 8208
SWIDTH 1000 0
DWIDTH 18 0
BBX 31 40 -6 -8
BITMAP
00000000
00000000
00000000
00000000
00000000
00000000
00000000
00000000
00000000
00000000
00000000
00000000
00000000
00000000
00000000
00000000
000FF000
000FF000
001FE000
001FE000
00000000
00000000
00000000
00000000
00000000
00000000
00000000
00000000
00000000
00000000
00000000
00000000
00000000
00000000
00000000
00000000
00000000
00000000
00000000
00000000
ENDCHAR
STARTCHAR U+007F
ENCODING 127
SWIDTH 1000 0
DWIDTH 18 0
BBX 31 40 -6 -8
BITMAP
00000000
00000000
00000000
00000000
000FF000
000FF000
001FE000
001FE000
001E7800
003CF000
003CF000
003CF000
0079E000
0079E000
0079E000
00F3C000
00F3C000
00F3C000
01E78000
01E78000
01FFE000
03FFC000
03FFC000
03FFC000
00780000
00780000
00780000
00F00000
00F00000
00F00000
01E00000
01E00000
01E00000
03C00000
03C00000
03C00000
07800000
07800000
07800000
0F000000
ENDCHAR
STARTCHAR U+007E
ENCODING 126
SWIDTH 1000 0
DWIDTH 18 0
BBX 31 40 -6 -8
BITMAP
00000000
00000000
00000000
00000000
0003F0F0
0003F0F0
0007E1E0
0007E1E0
001E79E0
003CF3C0
003CF3C0
003CF3C0
00787E00
00787E00
00787E00
00F0FC00
00000000
00000000
00000000
00000000
00000000
00000000
00000000
00000000
00000000
00000000
00000000
00000000
00000000
00000000
00000000
00000000
00000000
00000000
00000000
00000000
00000000
00000000
00000000
00000000
ENDCHAR
STARTCHAR U+007D
ENCODING 125
SWIDTH 1000 0
DWIDTH 18 0
BBX 31 40 -6 -8
BITMAP
00000000
00000000
00000000
00000000
000FF000
000FF000
001FE000
001FE000
00007800
0000F000
0000F000
0000F000
00078000
00078000
00078000
000F0000
0003F000
0003F000
0007E000
0007E000
001E0000
003C0000
003C0000
003C0000
001E0000
001E0000
001E0000
003C0000
0FF00000
0FF00000
1FE00000
1FE00000
00000000
00000000
00000000
00000000
00000000
00000000
00000000
00000000
ENDCHAR
STARTCHAR U+007C
ENCODING 124
SWIDTH 1000 0
DWIDTH 18 0
BBX 31 40 -6 -8
BITMAP
00000000
00000000
00000000
00000000
00003C00
00003C00
00007800
00007800
00007800
0000F000
0000F000
0000F000
0001E000
0001E000
0001E000
0003C000
0003C000
0003C000
00078000
00078000
00078000
000F0000
000F0000
000F0000
001E0000
001E0000
001E0000
003C0000
003C0000
003C0000
00780000
00780000
00000000
00000000
00000000
00000000
00000000
00000000
00000000
00000000
ENDCHAR
STARTCHAR U+007B
ENCODING 123
SWIDTH 1000 0
DWIDTH 18 0
BBX 31 40 -6 -8
BITMAP
00000000
00000000
00000000
00000000
00000FF0
00000FF0
00001FE0
00001FE0
00007800
0000F000
0000F000
0000F000
00007800
00007800
00007800
0000F000
000FC000
000FC000
001F8000
001F8000
0001E000
0003C000
0003C000
0003C000
001E0000
001E0000
001E0000
003C0000
000FF000
000FF000
001FE000
001FE000
00000000
00000000
00000000
00000000
00000000
00000000
00000000
00000000
ENDCHAR
STARTCHAR U+007A
ENCODING 122
SWIDTH 1000 0
DWIDTH 18 0
BBX 31 40 -6 -8
BITMAP
00000000
00000000
00000000
00000000
00000000
00000000
00000000
00000000
00000000
00000000
00000000
00000000
007FFF80
007FFF80
007FFF80
00FFFF00
00003C00
00003C00
00007800
00007800
0007E000
000FC000
000FC000
000FC000
00780000
00780000
00780000
00F00000
0FFFF000
0FFFF000
1FFFE000
1FFFE000
00000000
00000000
00000000
00000000
00000000
00000000
00000000
00000000
ENDCHAR
STARTCHAR U+0079
ENCODING 121
SWIDTH 1000 0
DWIDTH 18 0
BBX 31 40 -6 -8
BITMAP
00000000
00000000
00000000
00000000
00000000
00000000
00000000
00000000
00000000
00000000
00000000
00000000
00781E00
00781E00
00781E00
00F03C00
00F03C00
00F03C00
01E07800
01E07800
01E1F800
03C3F000
03C3F000
03C3F000
01FFE000
01FFE000
01FFE000
03FFC000
0003C000
0003C000
00078000
00078000
1E078000
3C0F0000
3C0F0000
3C0F0000
1FF80000
1FF80000
1FF80000
3FF00000
ENDCHAR
STARTCHAR U+0078
ENCODING 120
SWIDTH 1000 0
DWIDTH 18 0
BBX 31 40 -6 -8
BITMAP
00000000
00000000
00000000
00000000
00000000
00000000
00000000
00000000
00000000
00000000
00000000
00000000
00781E00
00781E00
00781E00
00F03C00
003CF000
003CF000
0079E000
0079E000
001F8000
003F0000
003F0000
003F0000
01E78000
01E78000
01E78000
03CF0000
0F03C000
0F03C000
1E078000
1E078000
00000000
00000000
00000000
00000000
00000000
00000000
00000000
00000000
ENDCHAR
STARTCHAR U+0077
ENCODING 119
SWIDTH 1000 0
DWIDTH 18 0
BBX 31 40 -6 -8
BITMAP
00000000
00000000
00000000
00000000
00000000
00000000
00000000
00000000
00000000
00000000
00000000
00000000
00780780
00780780
00780780
00F00F00
00F00F00
00F00F00
01E01E00
01E01E00
01E79E00
03CF3C00
03CF3C00
03CF3C00
07FFF800
07FFF800
07FFF800
0FFFF000
03C3C000
03C3C000
07878000
07878000
00000000
00000000
00000000
00000000
00000000
00000000
00000000
00000000
ENDCHAR
STARTCHAR U+0076
ENCODING 118
SWIDTH 1000 0
DWIDTH 18 0
BBX 31 40 -6 -8
BITMAP
00000000
00000000
00000000
00000000
00000000
00000000
00000000
00000000
00000000
00000000
00000000
00000000
00780780
00780780
00780780
00F00F00
00F00F00
00F00F00
01E01E00
01E01E00
00787800
00F0F000
00F0F000
00F0F000
007F8000
007F8000
007F8000
00FF0000
003C0000
003C0000
00780000
00780000
00000000
00000000
00000000
00000000
00000000
00000000
00000000
00000000
ENDCHAR
STARTCHAR U+0075
ENCODING 117
SWIDTH 1000 0
DWIDTH 18 0
BBX 31 40 -6 -8
BITMAP
00000000
00000000
00000000
00000000
00000000
00000000
00000000
00000000
00000000
00000000
00000000
00000000
00781E00
00781E00
00781E00
00F03C00
00F03C00
00F03C00
01E07800
01E07800
01E07800
03C0F000
03C0F000
03C0F000
0781E000
0781E000
0781E000
0F03C000
03FFF000
03FFF000
07FFE000
07FFE000
00000000
00000000
00000000
00000000
00000000
00000000
00000000
00000000
ENDCHAR
STARTCHAR U+0074
ENCODING 116
SWIDTH 1000 0
DWIDTH 18 0
BBX 31 40 -6 -8
BITMAP
00000000
00000000
00000000
00000000
0000F000
0000F000
0001E000
0001E000
0001E000
0003C000
0003C000
0003C000
007FF800
007FF800
007FF800
00FFF000
000F0000
000F0000
001E0000
001E0000
001E0000
003C0000
003C0000
003C0000
0079E000
0079E000
0079E000
00F3C000
003F0000
003F0000
007E0000
007E0000
00000000
00000000
00000000
00000000
00000000
00000000
00000000
00000000
ENDCHAR
STARTCHAR U+0073
ENCODING 115
SWIDTH 1000 0
DWIDTH 18 0
BBX 31 40 -6 -8
BITMAP
00000000
00000000
00000000
00000000
00000000
00000000
00000000
00000000
00000000
00000000
00000000
00000000
001FFE00
001FFE00
001FFE00
003FFC00
00F00000
00F00000
01E00000
01E00000
007FF800
00FFF000
00FFF000
00FFF000
00007800
00007800
00007800
0000F000
0FFFC000
0FFFC000
1FFF8000
1FFF8000
00000000
00000000
00000000
00000000
00000000
00000000
00000000
00000000
ENDCHAR
STARTCHAR U+0072
ENCODING 114
SWIDTH 1000 0
DWIDTH 18 0
BBX 31 40 -6 -8
BITMAP
00000000
00000000
00000000
00000000
00000000
00000000
00000000
00000000
00000000
00000000
00000000
00000000
0079FE00
0079FE00
0079FE00
00F3FC00
003F0F00
003F0F00
007E1E00
007E1E00
00780000
00F00000
00F00000
00F00000
01E00000
01E00000
01E00000
03C00000
03C00000
03C00000
07800000
07800000
00000000
00000000
00000000
00000000
00000000
00000000
00000000
00000000
ENDCHAR
STARTCHAR U+0071
ENCODING 113
SWIDTH 1000 0
DWIDTH 18 0
BBX 31 40 -6 -8
BITMAP
00000000
00000000
00000000
00000000
00000000
00000000
00000000
00000000
00000000
00000000
00000000
00000000
001FFF80
001FFF80
001FFF80
003FFF00
00F03F00
00F03F00
01E07E00
01E07E00
01E07E00
03C0FC00
03C0FC00
03C0FC00
01FFF800
01FFF800
01FFF800
03FFF000
0000F000
0000F000
0001E000
0001E000
0001E000
0003C000
0003C000
0003C000
00078000
00078000
00078000
000F0000
ENDCHAR
STARTCHAR U+0070
ENCODING 112
SWIDTH 1000 0
DWIDTH 18 0
BBX 31 40 -6 -8
BITMAP
00000000
00000000
00000000
00000000
00000000
00000000
00000000
00000000
00000000
00000000
00000000
00000000
007FFE00
007FFE00
007FFE00
00FFFC00
00FC0F00
00FC0F00
01F81E00
01F81E00
01F81E00
03F03C00
03F03C00
03F03C00
07FFE000
07FFE000
07FFE000
0FFFC000
0F000000
0F000000
1E000000
1E000000
1E000000
3C000000
3C000000
3C000000
78000000
78000000
78000000
F0000000
ENDCHAR
STARTCHAR U+006f
ENCODING 111
SWIDTH 1000 0
DWIDTH 18 0
BBX 31 40 -6 -8
BITMAP
00000000
00000000
00000000
00000000
00000000
00000000
00000000
00000000
00000000
00000000
00000000
00000000
001FFE00
001FFE00
001FFE00
003FFC00
00F00F00
00F00F00
01E01E00
01E01E00
01E01E00
03C03C00
03C03C00
03C03C00
07807800
07807800
07807800
0F00F000
03FFC000
03FFC000
07FF8000
07FF8000
00000000
00000000
00000000
00000000
00000000
00000000
00000000
00000000
ENDCHAR
STARTCHAR U+006e
ENCODING 110
SWIDTH 1000 0
DWIDTH 18 0
BBX 31 40 -6 -8
BITMAP
00000000
00000000
00000000
00000000
00000000
00000000
00000000
00000000
00000000
00000000
00000000
00000000
007FFE00
007FFE00
007FFE00
00FFFC00
00FC0F00
00FC0F00
01F81E00
01F81E00
01E01E00
03C03C00
03C03C00
03C03C00
07807800
07807800
07807800
0F00F000
0F00F000
0F00F000
1E01E000
1E01E000
00000000
00000000
00000000
00000000
00000000
00000000
00000000
00000000
ENDCHAR
STARTCHAR U+006d
ENCODING 109
SWIDTH 1000 0
DWIDTH 18 0
BBX 31 40 -6 -8
BITMAP
00000000
00000000
00000000
00000000
00000000
00000000
00000000
00000000
00000000
00000000
00000000
00000000
007E1E00
007E1E00
007E1E00
00FC3C00
00FFFF00
00FFFF00
01FFFE00
01FFFE00
01E79E00
03CF3C00
03CF3C00
03CF3C00
079E7800
079E7800
079E7800
0F3CF000
0F00F000
0F00F000
1E01E000
1E01E000
00000000
00000000
00000000
00000000
00000000
00000000
00000000
00000000
ENDCHAR
STARTCHAR U+006c
ENCODING 108
SWIDTH 1000 0
DWIDTH 18 0
BBX 31 40 -6 -8
BITMAP
00000000
00000000
00000000
00000000
0000FC00
0000FC00
0001F800
0001F800
00007800
0000F000
0000F000
0000F000
0001E000
0001E000
0001E000
0003C000
0003C000
0003C000
00078000
00078000
00078000
000F0000
000F0000
000F0000
001E0000
001E0000
001E0000
003C0000
00FF0000
00FF0000
01FE0000
01FE0000
00000000
00000000
00000000
00000000
00000000
00000000
00000000
00000000
ENDCHAR
STARTCHAR U+006b
ENCODING 107
SWIDTH 1000 0
DWIDTH 18 0
BBX 31 40 -6 -8
BITMAP
00000000
00000000
00000000
00000000
000F0000
000F0000
001E0000
001E0000
001E0000
003C0000
003C0000
003C0000
00787800
00787800
00787800
00F0F000
00F3C000
00F3C000
01E78000
01E78000
01FE0000
03FC0000
03FC0000
03FC0000
07878000
07878000
07878000
0F0E8000
0F00F000
0F00F000
1E01E000
1E01E000
00000000
00000000
00000000
00000000
00000000
00000000
00000000
00000000
ENDCHAR
STARTCHAR U+006a
ENCODING 106
SWIDTH 1000 0
DWIDTH 18 0
BBX 31 40 -6 -8
BITMAP
00000000
00000000
00000000
00000000
000003C0
000003C0
00000780
00000780
00000000
00000000
00000000
00000000
00001E00
00001E00
00001E00
00003C00
00003C00
00003C00
00007800
00007800
00007800
0000F000
0000F000
0000F000
0001E000
0001E000
0001E000
0003C000
0F03C000
0F03C000
1E078000
1E078000
1E078000
3C0F0000
3C0F0000
3C0F0000
1FF80000
1FF80000
1FF80000
3FF00000
ENDCHAR
STARTCHAR U+0069
ENCODING 105
SWIDTH 1000 0
DWIDTH 18 0
BBX 31 40 -6 -8
BITMAP
00000000
00000000
00000000
00000000
00003C00
00003C00
00007800
00007800
00000000
00000000
00000000
00000000
0007E000
0007E000
0007E000
000FC000
0003C000
0003C000
00078000
00078000
00078000
000F0000
000F0000
000F0000
001E0000
001E0000
001E0000
003C0000
03FFC000
03FFC000
07FF8000
07FF8000
00000000
00000000
00000000
00000000
00000000
00000000
00000000
00000000
ENDCHAR
STARTCHAR U+0068
ENCODING 104
SWIDTH 1000 0
DWIDTH 18 0
BBX 31 40 -6 -8
BITMAP
00000000
00000000
00000000
00000000
000F0000
000F0000
001E0000
001E0000
001E0000
003C0000
003C0000
003C0000
007FFE00
007FFE00
007FFE00
00FFFC00
00FC0F00
00FC0F00
01F81E00
01F81E00
01E01E00
03C03C00
03C03C00
03C03C00
07807800
07807800
07807800
0F00F000
0F00F000
0F00F000
1E01E000
1E01E000
00000000
00000000
00000000
00000000
00000000
00000000
00000000
00000000
ENDCHAR
STARTCHAR U+0067
ENCODING 103
SWIDTH 1000 0
DWIDTH 18 0
BBX 31 40 -6 -8
BITMAP
00000000
00000000
00000000
00000000
00000000
00000000
00000000
00000000
00000000
00000000
00000000
00000000
001FFF80
001FFF80
001FFF80
003FFF00
00F03C00
00F03C00
01E07800
01E07800
007FE000
00FFC000
00FFC000
00FFC000
07800000
07800000
07800000
0F000000
03FFC000
03FFC000
07FF8000
07FF8000
1E01E000
3C03C000
3C03C000
3C03C000
1FFE0000
1FFE0000
1FFE0000
3FFC0000
ENDCHAR
STARTCHAR U+0066
ENCODING 102
SWIDTH 1000 0
DWIDTH 18 0
BBX 31 40 -6 -8
BITMAP
00000000
00000000
00000000
00000000
00003FC0
00003FC0
00007F80
00007F80
0001E1E0
0003C3C0
0003C3C0
0003C3C0
00078000
00078000
00078000
000F0000
00FFF000
00FFF000
01FFE000
01FFE000
001E0000
003C0000
003C0000
003C0000
00780000
00780000
00780000
00F00000
00F00000
00F00000
01E00000
01E00000
00000000
00000000
00000000
00000000
00000000
00000000
00000000
00000000
ENDCHAR
STARTCHAR U+0065
ENCODING 101
SWIDTH 1000 0
DWIDTH 18 0
BBX 31 40 -6 -8
BITMAP
00000000
00000000
00000000
00000000
00000000
00000000
00000000
00000000
00000000
00000000
00000000
00000000
001FFE00
001FFE00
001FFE00
003FFC00
00F00F00
00F00F00
01E01E00
01E01E00
01FFFE00
03FFFC00
03FFFC00
03FFFC00
07800000
07800000
07800000
0F000000
03FFC000
03FFC000
07FF8000
07FF8000
00000000
00000000
00000000
00000000
00000000
00000000
00000000
00000000
ENDCHAR
STARTCHAR U+0064
ENCODING 100
SWIDTH 1000 0
DWIDTH 18 0
BBX 31 40 -6 -8
BITMAP
00000000
00000000
00000000
00000000
000000F0
000000F0
000001E0
000001E0
000001E0
000003C0
000003C0
000003C0
001FFF80
001FFF80
001FFF80
003FFF00
00F03F00
00F03F00
01E07E00
01E07E00
01E01E00
03C03C00
03C03C00
03C03C00
0781F800
0781F800
0781F800
0F03F000
03FFF000
03FFF000
07FFE000
07FFE000
00000000
00000000
00000000
00000000
00000000
00000000
00000000
00000000
ENDCHAR
STARTCHAR U+0063
ENCODING 99
SWIDTH 1000 0
DWIDTH 18 0
BBX 31 40 -6 -8
BITMAP
00000000
00000000
00000000
00000000
00000000
00000000
00000000
00000000
00000000
00000000
00000000
00000000
001FFE00
001FFE00
001FFE00
003FFC00
00F00F00
00F00F00
01E01E00
01E01E00
01E00000
03C00000
03C00000
03C00000
07800000
07800000
07800000
0F000000
03FFF000
03FFF000
07FFE000
07FFE000
00000000
00000000
00000000
00000000
00000000
00000000
00000000
00000000
ENDCHAR
STARTCHAR U+0062
ENCODING 98
SWIDTH 1000 0
DWIDTH 18 0
BBX 31 40 -6 -8
BITMAP
00000000
00000000
00000000
00000000
000F0000
000F0000
001E0000
001E0000
001E0000
003C0000
003C0000
003C0000
007FFE00
007FFE00
007FFE00
00FFFC00
00FC0F00
00FC0F00
01F81E00
01F81E00
01E01E00
03C03C00
03C03C00
03C03C00
07E07800
07E07800
07E07800
0FC0F000
0FFFC000
0FFFC000
1FFF8000
1FFF8000
00000000
00000000
00000000
00000000
00000000
00000000
00000000
00000000
ENDCHAR
STARTCHAR U+0061
ENCODING 97
SWIDTH 1000 0
DWIDTH 18 0
BBX 31 40 -6 -8
BITMAP
00000000
00000000
00000000
00000000
00000000
00000000
00000000
00000000
00000000
00000000
00000000
00000000
001FFE00
001FFE00
001FFE00
003FFC00
00000F00
00000F00
00001E00
00001E00
007FFE00
00FFFC00
00FFFC00
00FFFC00
0781F800
0781F800
0781F800
0F03F000
03FFF000
03FFF000
07FFE000
07FFE000
00000000
00000000
00000000
00000000
00000000
00000000
00000000
00000000
ENDCHAR
STARTCHAR U+0060
ENCODING 96
SWIDTH 1000 0
DWIDTH 18 0
BBX 31 40 -6 -8
BITMAP
00000000
00000000
00000000
00000000
0000FC00
0000FC00
0001F800
0001F800
00007800
0000F000
0000F000
0000F000
00007800
00007800
00007800
0000F000
00000000
00000000
00000000
00000000
00000000
00000000
00000000
00000000
00000000
00000000
00000000
00000000
00000000
00000000
00000000
00000000
00000000
00000000
00000000
00000000
00000000
00000000
00000000
00000000
ENDCHAR
STARTCHAR U+005F
ENCODING 95
SWIDTH 1000 0
DWIDTH 18 0
BBX 31 40 -6 -8
BITMAP
00000000
00000000
00000000
00000000
00000000
00000000
00000000
00000000
00000000
00000000
00000000
00000000
00000000
00000000
00000000
00000000
00000000
00000000
00000000
00000000
00000000
00000000
00000000
00000000
00000000
00000000
00000000
00000000
0FFFF000
0FFFF000
1FFFE000
1FFFE000
00000000
00000000
00000000
00000000
00000000
00000000
00000000
00000000
ENDCHAR
STARTCHAR U+005E
ENCODING 94
SWIDTH 1000 0
DWIDTH 18 0
BBX 31 40 -6 -8
BITMAP
00000000
00000000
00000000
00000000
00003C00
00003C00
00007800
00007800
0001FE00
0003FC00
0003FC00
0003FC00
001E1E00
001E1E00
001E1E00
003C3C00
00F00F00
00F00F00
01E01E00
01E01E00
00000000
00000000
00000000
00000000
00000000
00000000
00000000
00000000
00000000
00000000
00000000
00000000
00000000
00000000
00000000
00000000
00000000
00000000
00000000
00000000
ENDCHAR
STARTCHAR U+005D
ENCODING 93
SWIDTH 1000 0
DWIDTH 18 0
BBX 31 40 -6 -8
BITMAP
00000000
00000000
00000000
00000000
0003FF00
0003FF00
0007FE00
0007FE00
00001E00
00003C00
00003C00
00003C00
00007800
00007800
00007800
0000F000
0000F000
0000F000
0001E000
0001E000
0001E000
0003C000
0003C000
0003C000
00078000
00078000
00078000
000F0000
03FF0000
03FF0000
07FE0000
07FE0000
00000000
00000000
00000000
00000000
00000000
00000000
00000000
00000000
ENDCHAR
STARTCHAR U+005C
ENCODING 92
SWIDTH 1000 0
DWIDTH 18 0
BBX 31 40 -6 -8
BITMAP
00000000
00000000
00000000
00000000
000F0000
000F0000
001E0000
001E0000
00078000
000F0000
000F0000
000F0000
00078000
00078000
00078000
000F0000
0003C000
0003C000
00078000
00078000
0001E000
0003C000
0003C000
0003C000
0001E000
0001E000
0001E000
0003C000
0000F000
0000F000
0001E000
0001E000
00000000
00000000
00000000
00000000
00000000
00000000
00000000
00000000
ENDCHAR
STARTCHAR U+005B
ENCODING 91
SWIDTH 1000 0
DWIDTH 18 0
BBX 31 40 -6 -8
BITMAP
00000000
00000000
00000000
00000000
0000FFC0
0000FFC0
0001FF80
0001FF80
0001E000
0003C000
0003C000
0003C000
00078000
00078000
00078000
000F0000
000F0000
000F0000
001E0000
001E0000
001E0000
003C0000
003C0000
003C0000
00780000
00780000
00780000
00F00000
00FFC000
00FFC000
01FF8000
01FF8000
00000000
00000000
00000000
00000000
00000000
00000000
00000000
00000000
ENDCHAR
STARTCHAR U+005A
ENCODING 90
SWIDTH 1000 0
DWIDTH 18 0
BBX 31 40 -6 -8
BITMAP
00000000
00000000
00000000
00000000
000FFFF0
000FFFF0
001FFFE0
001FFFE0
00000780
00000F00
00000F00
00000F00
00007800
00007800
00007800
0000F000
0003C000
0003C000
00078000
00078000
001E0000
003C0000
003C0000
003C0000
01E00000
01E00000
01E00000
03C00000
0FFFF000
0FFFF000
1FFFE000
1FFFE000
00000000
00000000
00000000
00000000
00000000
00000000
00000000
00000000
ENDCHAR
STARTCHAR U+0059
ENCODING 89
SWIDTH 1000 0
DWIDTH 18 0
BBX 31 40 -6 -8
BITMAP
00000000
00000000
00000000
00000000
000F00F0
000F00F0
001E01E0
001E01E0
00078780
000F0F00
000F0F00
000F0F00
0007F800
0007F800
0007F800
000FF000
0003C000
0003C000
00078000
00078000
00078000
000F0000
000F0000
000F0000
001E0000
001E0000
001E0000
003C0000
003C0000
003C0000
00780000
00780000
00000000
00000000
00000000
00000000
00000000
00000000
00000000
00000000
ENDCHAR
STARTCHAR U+0058
ENCODING 88
SWIDTH 1000 0
DWIDTH 18 0
BBX 31 40 -6 -8
BITMAP
00000000
00000000
00000000
00000000
000F00F0
000F00F0
001E01E0
001E01E0
00078780
000F0F00
000F0F00
000F0F00
0007F800
0007F800
0007F800
000FF000
0003C000
0003C000
00078000
00078000
001FE000
003FC000
003FC000
003FC000
01E1E000
01E1E000
01E1E000
03C3C000
0F00F000
0F00F000
1E01E000
1E01E000
00000000
00000000
00000000
00000000
00000000
00000000
00000000
00000000
ENDCHAR
STARTCHAR U+0057
ENCODING 87
SWIDTH 1000 0
DWIDTH 18 0
BBX 31 40 -6 -8
BITMAP
00000000
00000000
00000000
00000000
000F00F0
000F00F0
001E01E0
001E01E0
001E01E0
003C03C0
003C03C0
003C03C0
00780780
00780780
00780780
00F00F00
00F3CF00
00F3CF00
01E79E00
01E79E00
01E79E00
03CF3C00
03CF3C00
03CF3C00
07FFF800
07FFF800
07FFF800
0FFFF000
03C3C000
03C3C000
07878000
07878000
00000000
00000000
00000000
00000000
00000000
00000000
00000000
00000000
ENDCHAR
STARTCHAR U+0056
ENCODING 86
SWIDTH 1000 0
DWIDTH 18 0
BBX 31 40 -6 -8
BITMAP
00000000
00000000
00000000
00000000
000F00F0
000F00F0
001E01E0
001E01E0
001E01E0
003C03C0
003C03C0
003C03C0
001E1E00
001E1E00
001E1E00
003C3C00
003C3C00
003C3C00
00787800
00787800
001FE000
003FC000
003FC000
003FC000
007F8000
007F8000
007F8000
00FF0000
003C0000
003C0000
00780000
00780000
00000000
00000000
00000000
00000000
00000000
00000000
00000000
00000000
ENDCHAR
STARTCHAR U+0055
ENCODING 85
SWIDTH 1000 0
DWIDTH 18 0
BBX 31 40 -6 -8
BITMAP
00000000
00000000
00000000
00000000
000F00F0
000F00F0
001E01E0
001E01E0
001E01E0
003C03C0
003C03C0
003C03C0
00780780
00780780
00780780
00F00F00
00F00F00
00F00F00
01E01E00
01E01E00
01E01E00
03C03C00
03C03C00
03C03C00
07807800
07807800
07807800
0F00F000
03FFC000
03FFC000
07FF8000
07FF8000
00000000
00000000
00000000
00000000
00000000
00000000
00000000
00000000
ENDCHAR
STARTCHAR U+0054
ENCODING 84
SWIDTH 1000 0
DWIDTH 18 0
BBX 31 40 -6 -8
BITMAP
00000000
00000000
00000000
00000000
000FFFF0
000FFFF0
001FFFE0
001FFFE0
00007800
0000F000
0000F000
0000F000
0001E000
0001E000
0001E000
0003C000
0003C000
0003C000
00078000
00078000
00078000
000F0000
000F0000
000F0000
001E0000
001E0000
001E0000
003C0000
003C0000
003C0000
00780000
00780000
00000000
00000000
00000000
00000000
00000000
00000000
00000000
00000000
ENDCHAR
STARTCHAR U+0053
ENCODING 83
SWIDTH 1000 0
DWIDTH 18 0
BBX 31 40 -6 -8
BITMAP
00000000
00000000
00000000
00000000
0003FFC0
0003FFC0
0007FF80
0007FF80
001E01E0
003C03C0
003C03C0
003C03C0
00780000
00780000
00780000
00F00000
003FFC00
003FFC00
007FF800
007FF800
00001E00
00003C00
00003C00
00003C00
07807800
07807800
07807800
0F00F000
03FFC000
03FFC000
07FF8000
07FF8000
00000000
00000000
00000000
00000000
00000000
00000000
00000000
00000000
ENDCHAR
STARTCHAR U+0052
ENCODING 82
SWIDTH 1000 0
DWIDTH 18 0
BBX 31 40 -6 -8
BITMAP
00000000
00000000
00000000
00000000
000FFFC0
000FFFC0
001FFF80
001FFF80
001E01E0
003C03C0
003C03C0
003C03C0
00780780
00780780
00780780
00F00F00
00FFFC00
00FFFC00
01FFF800
01FFF800
01E1E000
03C3C000
03C3C000
03C3C000
0781E000
0781E000
0781E000
0F03C000
0F00F000
0F00F000
1E01E000
1E01E000
00000000
00000000
00000000
00000000
00000000
00000000
00000000
00000000
ENDCHAR
STARTCHAR U+0051
ENCODING 81
SWIDTH 1000 0
DWIDTH 18 0
BBX 31 40 -6 -8
BITMAP
00000000
00000000
00000000
00000000
0003FFC0
0003FFC0
0007FF80
0007FF80
001E01E0
003C03C0
003C03C0
003C03C0
00780780
00780780
00780780
00F00F00
00F00F00
00F00F00
01E01E00
01E01E00
01E1FE00
03C3FC00
03C3FC00
03C3FC00
0781E000
0781E000
0781E000
0F03C000
03FFF000
03FFF000
07FFE000
07FFE000
00000000
00000000
00000000
00000000
00000000
00000000
00000000
00000000
ENDCHAR
STARTCHAR U+0050
ENCODING 80
SWIDTH 1000 0
DWIDTH 18 0
BBX 31 40 -6 -8
BITMAP
00000000
00000000
00000000
00000000
000FFFC0
000FFFC0
001FFF80
001FFF80
001E01E0
003C03C0
003C03C0
003C03C0
00780780
00780780
00780780
00F00F00
00FFFC00
00FFFC00
01FFF800
01FFF800
01E00000
03C00000
03C00000
03C00000
07800000
07800000
07800000
0F000000
0F000000
0F000000
1E000000
1E000000
00000000
00000000
00000000
00000000
00000000
00000000
00000000
00000000
ENDCHAR
STARTCHAR U+004F
ENCODING 79
SWIDTH 1000 0
DWIDTH 18 0
BBX 31 40 -6 -8
BITMAP
00000000
00000000
00000000
00000000
0003FFC0
0003FFC0
0007FF80
0007FF80
001E01E0
003C03C0
003C03C0
003C03C0
00780780
00780780
00780780
00F00F00
00F00F00
00F00F00
01E01E00
01E01E00
01E01E00
03C03C00
03C03C00
03C03C00
07807800
07807800
07807800
0F00F000
03FFC000
03FFC000
07FF8000
07FF8000
00000000
00000000
00000000
00000000
00000000
00000000
00000000
00000000
ENDCHAR
STARTCHAR U+004E
ENCODING 78
SWIDTH 1000 0
DWIDTH 18 0
BBX 31 40 -6 -8
BITMAP
00000000
00000000
00000000
00000000
000F00F0
000F00F0
001E01E0
001E01E0
001F81E0
003F03C0
003F03C0
003F03C0
007F8780
007F8780
007F8780
00FF0F00
00F3CF00
00F3CF00
01E79E00
01E79E00
01E1FE00
03C3FC00
03C3FC00
03C3FC00
0781F800
0781F800
0781F800
0F03F000
0F00F000
0F00F000
1E01E000
1E01E000
00000000
00000000
00000000
00000000
00000000
00000000
00000000
00000000
ENDCHAR
STARTCHAR U+004D
ENCODING 77
SWIDTH 1000 0
DWIDTH 18 0
BBX 31 40 -6 -8
BITMAP
00000000
00000000
00000000
00000000
000F00F0
000F00F0
001E01E0
001E01E0
001F87E0
003F0FC0
003F0FC0
003F0FC0
007FFF80
007FFF80
007FFF80
00FFFF00
00F3CF00
00F3CF00
01E79E00
01E79E00
01E01E00
03C03C00
03C03C00
03C03C00
07807800
07807800
07807800
0F00F000
0F00F000
0F00F000
1E01E000
1E01E000
00000000
00000000
00000000
00000000
00000000
00000000
00000000
00000000
ENDCHAR
STARTCHAR U+004C
ENCODING 76
SWIDTH 1000 0
DWIDTH 18 0
BBX 31 40 -6 -8
BITMAP
00000000
00000000
00000000
00000000
000F0000
000F0000
001E0000
001E0000
001E0000
003C0000
003C0000
003C0000
00780000
00780000
00780000
00F00000
00F00000
00F00000
01E00000
01E00000
01E00000
03C00000
03C00000
03C00000
07800000
07800000
07800000
0F000000
0FFFF000
0FFFF000
1FFFE000
1FFFE000
00000000
00000000
00000000
00000000
00000000
00000000
00000000
00000000
ENDCHAR
STARTCHAR U+004B
ENCODING 75
SWIDTH 1000 0
DWIDTH 18 0
BBX 31 40 -6 -8
BITMAP
00000000
00000000
00000000
00000000
000F00F0
000F00F0
001E01E0
001E01E0
001E1F80
003C3F00
003C3F00
003C3F00
007FE000
007FE000
007FE000
00FFC000
00FC0000
00FC0000
01F80000
01F80000
01FF8000
03FF0000
03FF0000
03FF0000
0787E000
0787E000
0787E000
0F0FC000
0F00F000
0F00F000
1E01E000
1E01E000
00000000
00000000
00000000
00000000
00000000
00000000
00000000
00000000
ENDCHAR
STARTCHAR U+004A
ENCODING 74
SWIDTH 1000 0
DWIDTH 18 0
BBX 31 40 -6 -8
BITMAP
00000000
00000000
00000000
00000000
00000FF0
00000FF0
00001FE0
00001FE0
00000780
00000F00
00000F00
00000F00
00001E00
00001E00
00001E00
00003C00
00003C00
00003C00
00007800
00007800
00007800
0000F000
0000F000
0000F000
0781E000
0781E000
0781E000
0F03C000
03FF0000
03FF0000
07FE0000
07FE0000
00000000
00000000
00000000
00000000
00000000
00000000
00000000
00000000
ENDCHAR
STARTCHAR U+0049
ENCODING 73
SWIDTH 1000 0
DWIDTH 18 0
BBX 31 40 -6 -8
BITMAP
00000000
00000000
00000000
00000000
0003FFC0
0003FFC0
0007FF80
0007FF80
00007800
0000F000
0000F000
0000F000
0001E000
0001E000
0001E000
0003C000
0003C000
0003C000
00078000
00078000
00078000
000F0000
000F0000
000F0000
001E0000
001E0000
001E0000
003C0000
03FFC000
03FFC000
07FF8000
07FF8000
00000000
00000000
00000000
00000000
00000000
00000000
00000000
00000000
ENDCHAR
STARTCHAR U+0048
ENCODING 72
SWIDTH 1000 0
DWIDTH 18 0
BBX 31 40 -6 -8
BITMAP
00000000
00000000
00000000
00000000
000F00F0
000F00F0
001E01E0
001E01E0
001E01E0
003C03C0
003C03C0
003C03C0
00780780
00780780
00780780
00F00F00
00FFFF00
00FFFF00
01FFFE00
01FFFE00
01E01E00
03C03C00
03C03C00
03C03C00
07807800
07807800
07807800
0F00F000
0F00F000
0F00F000
1E01E000
1E01E000
00000000
00000000
00000000
00000000
00000000
00000000
00000000
00000000
ENDCHAR
STARTCHAR U+0047
ENCODING 71
SWIDTH 1000 0
DWIDTH 18 0
BBX 31 40 -6 -8
BITMAP
00000000
00000000
00000000
00000000
0000FFC0
0000FFC0
0001FF80
0001FF80
000781E0
000F03C0
000F03C0
000F03C0
00780000
00780000
00780000
00F00000
00F00000
00F00000
01E00000
01E00000
01E1FE00
03C3FC00
03C3FC00
03C3FC00
01E07800
01E07800
01E07800
03C0F000
00FFC000
00FFC000
01FF8000
01FF8000
00000000
00000000
00000000
00000000
00000000
00000000
00000000
00000000
ENDCHAR
STARTCHAR U+0046
ENCODING 70
SWIDTH 1000 0
DWIDTH 18 0
BBX 31 40 -6 -8
BITMAP
00000000
00000000
00000000
00000000
000FFFF0
000FFFF0
001FFFE0
001FFFE0
001E0000
003C0000
003C0000
003C0000
00780000
00780000
00780000
00F00000
00FFF000
00FFF000
01FFE000
01FFE000
01E00000
03C00000
03C00000
03C00000
07800000
07800000
07800000
0F000000
0F000000
0F000000
1E000000
1E000000
00000000
00000000
00000000
00000000
00000000
00000000
00000000
00000000
ENDCHAR
STARTCHAR U+0045
ENCODING 69
SWIDTH 1000 0
DWIDTH 18 0
BBX 31 40 -6 -8
BITMAP
00000000
00000000
00000000
00000000
000FFFF0
000FFFF0
001FFFE0
001FFFE0
001E0000
003C0000
003C0000
003C0000
00780000
00780000
00780000
00F00000
00FFF000
00FFF000
01FFE000
01FFE000
01E00000
03C00000
03C00000
03C00000
07800000
07800000
07800000
0F000000
0FFFF000
0FFFF000
1FFFE000
1FFFE000
00000000
00000000
00000000
00000000
00000000
00000000
00000000
00000000
ENDCHAR
STARTCHAR U+0044
ENCODING 68
SWIDTH 1000 0
DWIDTH 18 0
BBX 31 40 -6 -8
BITMAP
00000000
00000000
00000000
00000000
000FFF00
000FFF00
001FFE00
001FFE00
00078780
000F0F00
000F0F00
000F0F00
001E0780
001E0780
001E0780
003C0F00
003C0F00
003C0F00
00781E00
00781E00
00781E00
00F03C00
00F03C00
00F03C00
01E1E000
01E1E000
01E1E000
03C3C000
0FFF0000
0FFF0000
1FFE0000
1FFE0000
00000000
00000000
00000000
00000000
00000000
00000000
00000000
00000000
ENDCHAR
STARTCHAR U+0043
ENCODING 67
SWIDTH 1000 0
DWIDTH 18 0
BBX 31 40 -6 -8
BITMAP
00000000
00000000
00000000
00000000
0000FFC0
0000FFC0
0001FF80
0001FF80
000781E0
000F03C0
000F03C0
000F03C0
00780000
00780000
00780000
00F00000
00F00000
00F00000
01E00000
01E00000
01E00000
03C00000
03C00000
03C00000
01E07800
01E07800
01E07800
03C0F000
00FFC000
00FFC000
01FF8000
01FF8000
00000000
00000000
00000000
00000000
00000000
00000000
00000000
00000000
ENDCHAR
STARTCHAR U+0042
ENCODING 66
SWIDTH 1000 0
DWIDTH 18 0
BBX 31 40 -6 -8
BITMAP
00000000
00000000
00000000
00000000
000FFFC0
000FFFC0
001FFF80
001FFF80
000781E0
000F03C0
000F03C0
000F03C0
001E0780
001E0780
001E0780
003C0F00
003FFC00
003FFC00
007FF800
007FF800
00781E00
00F03C00
00F03C00
00F03C00
01E07800
01E07800
01E07800
03C0F000
0FFFC000
0FFFC000
1FFF8000
1FFF8000
00000000
00000000
00000000
00000000
00000000
00000000
00000000
00000000
ENDCHAR
STARTCHAR U+0041
ENCODING 65
SWIDTH 1000 0
DWIDTH 18 0
BBX 31 40 -6 -8
BITMAP
00000000
00000000
00000000
00000000
00003C00
00003C00
00007800
00007800
0001FE00
0003FC00
0003FC00
0003FC00
001E1E00
001E1E00
001E1E00
003C3C00
00F00F00
00F00F00
01E01E00
01E01E00
01FFFE00
03FFFC00
03FFFC00
03FFFC00
07807800
07807800
07807800
0F00F000
0F00F000
0F00F000
1E01E000
1E01E000
00000000
00000000
00000000
00000000
00000000
00000000
00000000
00000000
ENDCHAR
STARTCHAR U+0040
ENCODING 64
SWIDTH 1000 0
DWIDTH 18 0
BBX 31 40 -6 -8
BITMAP
00000000
00000000
00000000
00000000
0003FFC0
0003FFC0
0007FF80
0007FF80
001E01E0
003C03C0
003C03C0
003C03C0
0079FF80
0079FF80
0079FF80
00F3FF00
00FF3F00
00FF3F00
01FE7E00
01FE7E00
01E7FE00
03CFFC00
03CFFC00
03CFFC00
07800000
07800000
07800000
0F000000
03FFC000
03FFC000
07FF8000
07FF8000
00000000
00000000
00000000
00000000
00000000
00000000
00000000
00000000
ENDCHAR
STARTCHAR U+003F
ENCODING 63
SWIDTH 1000 0
DWIDTH 18 0
BBX 31 40 -6 -8
BITMAP
00000000
00000000
00000000
00000000
0003FFC0
0003FFC0
0007FF80
0007FF80
001E01E0
003C03C0
003C03C0
003C03C0
00007E00
00007E00
00007E00
0000FC00
0003C000
0003C000
00078000
00078000
00078000
000F0000
000F0000
000F0000
00000000
00000000
00000000
00000000
003C0000
003C0000
00780000
00780000
00000000
00000000
00000000
00000000
00000000
00000000
00000000
00000000
ENDCHAR
STARTCHAR U+003E
ENCODING 62
SWIDTH 1000 0
DWIDTH 18 0
BBX 31 40 -6 -8
BITMAP
00000000
00000000
00000000
00000000
000F0000
000F0000
001E0000
001E0000
0002E000
0003C000
0003C000
0003C000
00007800
00007800
00007800
0000E800
00000F00
00000F00
00001E00
00001E00
0001E000
0003C000
0003C000
0007C000
00780000
00780000
00B80000
00F00000
0F000000
0F000000
1E000000
1E000000
00000000
00000000
00000000
00000000
00000000
00000000
00000000
00000000
ENDCHAR
STARTCHAR U+003D
ENCODING 61
SWIDTH 1000 0
DWIDTH 18 0
BBX 31 40 -6 -8
BITMAP
00000000
00000000
00000000
00000000
00000000
00000000
00000000
00000000
00000000
00000000
00000000
00000000
007FFF80
007FFF80
007FFF80
00FFFF00
00000000
00000000
00000000
00000000
01FFFE00
03FFFC00
03FFFC00
03FFFC00
00000000
00000000
00000000
00000000
00000000
00000000
00000000
00000000
00000000
00000000
00000000
00000000
00000000
00000000
00000000
00000000
ENDCHAR
STARTCHAR U+003C
ENCODING 60
SWIDTH 1000 0
DWIDTH 18 0
BBX 31 40 -6 -8
BITMAP
00000000
00000000
00000000
00000000
000000F0
000000F0
000001E0
000001E0
00001E00
00003C00
00003C00
00007C00
00078000
00078000
000B8000
000F0000
00F00000
00F00000
01E00000
01E00000
002E0000
003C0000
003C0000
003C0000
00078000
00078000
00078000
000E8000
0000F000
0000F000
0001E000
0001E000
00000000
00000000
00000000
00000000
00000000
00000000
00000000
00000000
ENDCHAR
STARTCHAR U+003B
ENCODING 59
SWIDTH 1000 0
DWIDTH 18 0
BBX 31 40 -6 -8
BITMAP
00000000
00000000
00000000
00000000
00000000
00000000
00000000
00000000
0001F800
0003F000
0003F000
0003F000
0007E000
0007E000
0007E000
000FC000
00000000
00000000
00000000
00000000
00000000
00000000
00000000
00000000
007E0000
007E0000
007E0000
00FC0000
00F00000
00F00000
01E00000
01E00000
07800000
0F000000
0F000000
0F000000
00000000
00000000
00000000
00000000
ENDCHAR
STARTCHAR U+003A
ENCODING 58
SWIDTH 1000 0
DWIDTH 18 0
BBX 31 40 -6 -8
BITMAP
00000000
00000000
00000000
00000000
00000000
00000000
00000000
00000000
0001F800
0003F000
0003F000
0003F000
0007E000
0007E000
0007E000
000FC000
00000000
00000000
00000000
00000000
00000000
00000000
00000000
00000000
007E0000
007E0000
007E0000
00FC0000
00FC0000
00FC0000
01F80000
01F80000
00000000
00000000
00000000
00000000
00000000
00000000
00000000
00000000
ENDCHAR
STARTCHAR U+0039
ENCODING 57
SWIDTH 1000 0
DWIDTH 18 0
BBX 31 40 -6 -8
BITMAP
00000000
00000000
00000000
00000000
0003FFC0
0003FFC0
0007FF80
0007FF80
001E01E0
003C03C0
003C03C0
003C03C0
00781F80
00781F80
00781F80
00F03F00
003FFF00
003FFF00
007FFE00
007FFE00
00001E00
00003C00
00003C00
00003C00
0001E000
0001E000
0001E000
0003C000
03FF0000
03FF0000
07FE0000
07FE0000
00000000
00000000
00000000
00000000
00000000
00000000
00000000
00000000
ENDCHAR
STARTCHAR U+0038
ENCODING 56
SWIDTH 1000 0
DWIDTH 18 0
BBX 31 40 -6 -8
BITMAP
00000000
00000000
00000000
00000000
0003FFC0
0003FFC0
0007FF80
0007FF80
001E01E0
003C03C0
003C03C0
003C03C0
00780780
00780780
00780780
00F00F00
003FFC00
003FFC00
007FF800
007FF800
01E01E00
03C03C00
03C03C00
03C03C00
07807800
07807800
07807800
0F00F000
03FFC000
03FFC000
07FF8000
07FF8000
00000000
00000000
00000000
00000000
00000000
00000000
00000000
00000000
ENDCHAR
STARTCHAR U+0037
ENCODING 55
SWIDTH 1000 0
DWIDTH 18 0
BBX 31 40 -6 -8
BITMAP
00000000
00000000
00000000
00000000
000FFFF0
000FFFF0
001FFFE0
001FFFE0
000001E0
000003C0
000003C0
000003C0
00001E00
00001E00
00001E00
00003C00
0000F000
0000F000
0001E000
0001E000
00078000
000F0000
000F0000
000F0000
00780000
00780000
00780000
00F00000
00F00000
00F00000
01E00000
01E00000
00000000
00000000
00000000
00000000
00000000
00000000
00000000
00000000
ENDCHAR
STARTCHAR U+0036
ENCODING 54
SWIDTH 1000 0
DWIDTH 18 0
BBX 31 40 -6 -8
BITMAP
00000000
00000000
00000000
00000000
0000FFC0
0000FFC0
0001FF80
0001FF80
00078000
000F0000
000F0000
000F0000
00780000
00780000
00780000
00F00000
00FFFC00
00FFFC00
01FFF800
01FFF800
01F81E00
03F03C00
03F03C00
03F03C00
07807800
07807800
07807800
0F00F000
03FFC000
03FFC000
07FF8000
07FF8000
00000000
00000000
00000000
00000000
00000000
00000000
00000000
00000000
ENDCHAR
STARTCHAR U+0035
ENCODING 53
SWIDTH 1000 0
DWIDTH 18 0
BBX 31 40 -6 -8
BITMAP
00000000
00000000
00000000
00000000
000FFFF0
000FFFF0
001FFFE0
001FFFE0
001E0000
003C0000
003C0000
003C0000
007FFE00
007FFE00
007FFE00
00FFFC00
00FC0F00
00FC0F00
01F81E00
01F81E00
00001E00
00003C00
00003C00
00003C00
07807800
07807800
07807800
0F00F000
03FFC000
03FFC000
07FF8000
07FF8000
00000000
00000000
00000000
00000000
00000000
00000000
00000000
00000000
ENDCHAR
STARTCHAR U+0034
ENCODING 52
SWIDTH 1000 0
DWIDTH 18 0
BBX 31 40 -6 -8
BITMAP
00000000
00000000
00000000
00000000
00000F00
00000F00
00001E00
00001E00
00007E00
0000FC00
0000FC00
0000FC00
0007F800
0007F800
0007F800
000FF000
003CF000
003CF000
0079E000
0079E000
01FFFE00
03FFFC00
03FFFC00
03FFFC00
00078000
00078000
00078000
000F0000
000F0000
000F0000
001E0000
001E0000
00000000
00000000
00000000
00000000
00000000
00000000
00000000
00000000
ENDCHAR
STARTCHAR U+0033
ENCODING 51
SWIDTH 1000 0
DWIDTH 18 0
BBX 31 40 -6 -8
BITMAP
00000000
00000000
00000000
00000000
000FFFF0
000FFFF0
001FFFE0
001FFFE0
00000780
00000F00
00000F00
00000F00
00007800
00007800
00007800
0000F000
0003FC00
0003FC00
0007F800
0007F800
00001E00
00003C00
00003C00
00003C00
07807800
07807800
07807800
0F00F000
03FFC000
03FFC000
07FF8000
07FF8000
00000000
00000000
00000000
00000000
00000000
00000000
00000000
00000000
ENDCHAR
STARTCHAR U+0032
ENCODING 50
SWIDTH 1000 0
DWIDTH 18 0
BBX 31 40 -6 -8
BITMAP
00000000
00000000
00000000
00000000
0003FFC0
0003FFC0
0007FF80
0007FF80
001E01E0
003C03C0
003C03C0
003C03C0
00000780
00000780
00000780
00000F00
0003FC00
0003FC00
0007F800
0007F800
007E0000
00FC0000
00FC0000
00FC0000
07800000
07800000
07800000
0F000000
0FFFF000
0FFFF000
1FFFE000
1FFFE000
00000000
00000000
00000000
00000000
00000000
00000000
00000000
00000000
ENDCHAR
STARTCHAR U+0031
ENCODING 49
SWIDTH 1000 0
DWIDTH 18 0
BBX 31 40 -6 -8
BITMAP
00000000
00000000
00000000
00000000
00003C00
00003C00
00007800
00007800
0001F800
0003F000
0003F000
0003F000
001FE000
001FE000
001FE000
003FC000
0003C000
0003C000
00078000
00078000
00078000
000F0000
000F0000
000F0000
001E0000
001E0000
001E0000
003C0000
03FFC000
03FFC000
07FF8000
07FF8000
00000000
00000000
00000000
00000000
00000000
00000000
00000000
00000000
ENDCHAR
STARTCHAR U+0030
ENCODING 48
SWIDTH 1000 0
DWIDTH 18 0
BBX 31 40 -6 -8
BITMAP
00000000
00000000
00000000
00000000
0000FF00
0000FF00
0001FE00
0001FE00
00078780
000F0F00
000F0F00
000F0F00
00780780
00780780
00780780
00F00F00
00F00F00
00F00F00
01E01E00
01E01E00
01E01E00
03C03C00
03C03C00
03C03C00
01E1E000
01E1E000
01E1E000
03C3C000
00FF0000
00FF0000
01FE0000
01FE0000
00000000
00000000
00000000
00000000
00000000
00000000
00000000
00000000
ENDCHAR
STARTCHAR U+002F
ENCODING 47
SWIDTH 1000 0
DWIDTH 18 0
BBX 31 40 -6 -8
BITMAP
00000000
00000000
00000000
00000000
000000F0
000000F0
000001E0
000001E0
00000780
00000F00
00000F00
00000F00
00007800
00007800
00007800
0000F000
0003C000
0003C000
00078000
00078000
001E0000
003C0000
003C0000
003C0000
01E00000
01E00000
01E00000
03C00000
0F000000
0F000000
1E000000
1E000000
00000000
00000000
00000000
00000000
00000000
00000000
00000000
00000000
ENDCHAR
STARTCHAR U+002E
ENCODING 46
SWIDTH 1000 0
DWIDTH 18 0
BBX 31 40 -6 -8
BITMAP
00000000
00000000
00000000
00000000
00000000
00000000
00000000
00000000
00000000
00000000
00000000
00000000
00000000
00000000
00000000
00000000
00000000
00000000
00000000
00000000
00000000
00000000
00000000
00000000
007E0000
007E0000
007E0000
00FC0000
00FC0000
00FC0000
01F80000
01F80000
00000000
00000000
00000000
00000000
00000000
00000000
00000000
00000000
ENDCHAR
STARTCHAR U+002D
ENCODING 45
SWIDTH 1000 0
DWIDTH 18 0
BBX 31 40 -6 -8
BITMAP
00000000
00000000
00000000
00000000
00000000
00000000
00000000
00000000
00000000
00000000
00000000
00000000
00000000
00000000
00000000
00000000
00FFFF00
00FFFF00
01FFFE00
01FFFE00
00000000
00000000
00000000
00000000
00000000
00000000
00000000
00000000
00000000
00000000
00000000
00000000
00000000
00000000
00000000
00000000
00000000
00000000
00000000
00000000
ENDCHAR
STARTCHAR U+002C
ENCODING 44
SWIDTH 1000 0
DWIDTH 18 0
BBX 31 40 -6 -8
BITMAP
00000000
00000000
00000000
00000000
00000000
00000000
00000000
00000000
00000000
00000000
00000000
00000000
00000000
00000000
00000000
00000000
00000000
00000000
00000000
00000000
00000000
00000000
00000000
00000000
007E0000
007E0000
007E0000
00FC0000
00F00000
00F00000
01E00000
01E00000
07800000
0F000000
0F000000
0F000000
00000000
00000000
00000000
00000000
ENDCHAR
STARTCHAR U+002B
ENCODING 43
SWIDTH 1000 0
DWIDTH 18 0
BBX 31 40 -6 -8
BITMAP
00000000
00000000
00000000
00000000
00000000
00000000
00000000
00000000
00007800
0000F000
0000F000
0000F000
0001E000
0001E000
0001E000
0003C000
00FFFF00
00FFFF00
01FFFE00
01FFFE00
00078000
000F0000
000F0000
000F0000
001E0000
001E0000
001E0000
003C0000
00000000
00000000
00000000
00000000
00000000
00000000
00000000
00000000
00000000
00000000
00000000
00000000
ENDCHAR
STARTCHAR U+002A
ENCODING 42
SWIDTH 1000 0
DWIDTH 18 0
BBX 31 40 -6 -8
BITMAP
00000000
00000000
00000000
00000000
00000000
00000000
00000000
00000000
00078780
000F0F00
000F0F00
000F0F00
0007F800
0007F800
0007F800
000FF000
00FFFF00
00FFFF00
01FFFE00
01FFFE00
001FE000
003FC000
003FC000
003FC000
01E1E000
01E1E000
01E1E000
03C3C000
00000000
00000000
00000000
00000000
00000000
00000000
00000000
00000000
00000000
00000000
00000000
00000000
ENDCHAR
STARTCHAR U+0029
ENCODING 41
SWIDTH 1000 0
DWIDTH 18 0
BBX 31 40 -6 -8
BITMAP
00000000
00000000
00000000
00000000
0000F000
0000F000
0001E000
0001E000
00007800
0000F000
0000F000
0000F000
00007800
00007800
00007800
0000F000
0000F000
0000F000
0001E000
0001E000
0001E000
0003C000
0003C000
0003C000
001E0000
001E0000
001E0000
003C0000
00F00000
00F00000
01E00000
01E00000
00000000
00000000
00000000
00000000
00000000
00000000
00000000
00000000
ENDCHAR
STARTCHAR U+0028
ENCODING 40
SWIDTH 1000 0
DWIDTH 18 0
BBX 31 40 -6 -8
BITMAP
00000000
00000000
00000000
00000000
00000F00
00000F00
00001E00
00001E00
00007800
0000F000
0000F000
0000F000
00078000
00078000
00078000
000F0000
000F0000
000F0000
001E0000
001E0000
001E0000
003C0000
003C0000
003C0000
001E0000
001E0000
001E0000
003C0000
000F0000
000F0000
001E0000
001E0000
00000000
00000000
00000000
00000000
00000000
00000000
00000000
00000000
ENDCHAR
STARTCHAR U+0027
ENCODING 39
SWIDTH 1000 0
DWIDTH 18 0
BBX 31 40 -6 -8
BITMAP
00000000
00000000
00000000
00000000
00003F00
00003F00
00007E00
00007E00
00007800
0000F000
0000F000
0000F000
00078000
00078000
00078000
000F0000
00000000
00000000
00000000
00000000
00000000
00000000
00000000
00000000
00000000
00000000
00000000
00000000
00000000
00000000
00000000
00000000
00000000
00000000
00000000
00000000
00000000
00000000
00000000
00000000
ENDCHAR
STARTCHAR U+0026
ENCODING 38
SWIDTH 1000 0
DWIDTH 18 0
BBX 31 40 -6 -8
BITMAP
00000000
00000000
00000000
00000000
0003FC00
0003FC00
0007F800
0007F800
001E1E00
003C3C00
003C3C00
003C3C00
00787800
00787800
00787800
00F0F000
003FC000
003FC000
007F8000
007F8000
01E1FE00
03C3FC00
03C3FC00
03C3FC00
0781E000
0781E000
0781E000
0F03C000
03FFF000
03FFF000
07FFE000
07FFE000
00000000
00000000
00000000
00000000
00000000
00000000
00000000
00000000
ENDCHAR
STARTCHAR U+0025
ENCODING 37
SWIDTH 1000 0
DWIDTH 18 0
BBX 31 40 -6 -8
BITMAP
00000000
00000000
00000000
00000000
0003C0F0
0003C0F0
000781E0
000781E0
001FE780
003FCF00
003FCF00
003FCF00
001E7800
001E7800
001E7800
003AF000
0003C000
0003C000
00078000
00078000
001EB800
003CF000
003CF000
003CF000
01E7F800
01E7F800
01E7F800
03CFF000
0F03C000
0F03C000
1E078000
1E078000
00000000
00000000
00000000
00000000
00000000
00000000
00000000
00000000
ENDCHAR
STARTCHAR U+0024
ENCODING 36
SWIDTH 1000 0
DWIDTH 18 0
BBX 31 40 -6 -8
BITMAP
00000000
00000000
00000000
00000000
00003C00
00003C00
00007800
00007800
0007FF80
000FFF00
000FFF00
000FFF00
0079E000
0079E000
0079E000
00F3C000
003FFC00
003FFC00
007FF800
007FF800
00079E00
000F3C00
000F3C00
000F3C00
01FFE000
01FFE000
01FFE000
03FFC000
003C0000
003C0000
00780000
00780000
00000000
00000000
00000000
00000000
00000000
00000000
00000000
00000000
ENDCHAR
STARTCHAR U+0023
ENCODING 35
SWIDTH 1000 0
DWIDTH 18 0
BBX 31 40 -6 -8
BITMAP
00000000
00000000
00000000
00000000
0003CF00
0003CF00
00079E00
00079E00
00079E00
000F3C00
000F3C00
000F3C00
007FFE00
007FFE00
007FFE00
00FFFC00
003CF000
003CF000
0079E000
0079E000
01FFF800
03FFF000
03FFF000
03FFF000
01E78000
01E78000
01E78000
03CF0000
03CF0000
03CF0000
079E0000
079E0000
00000000
00000000
00000000
00000000
00000000
00000000
00000000
00000000
ENDCHAR
STARTCHAR U+0022
ENCODING 34
SWIDTH 1000 0
DWIDTH 18 0
BBX 31 40 -6 -8
BITMAP
00000000
00000000
00000000
00000000
0003CF00
0003CF00
00079E00
00079E00
00079E00
000F3C00
000F3C00
000F3C00
001E7800
001E7800
001E7800
003CF000
00000000
00000000
00000000
00000000
00000000
00000000
00000000
00000000
00000000
00000000
00000000
00000000
00000000
00000000
00000000
00000000
00000000
00000000
00000000
00000000
00000000
00000000
00000000
00000000
ENDCHAR
STARTCHAR U+0021
ENCODING 33
SWIDTH 1000 0
DWIDTH 18 0
BBX 31 40 -6 -8
BITMAP
00000000
00000000
00000000
00000000
00003C00
00003C00
00007800
00007800
00007800
0000F000
0000F000
0000F000
0001E000
0001E000
0001E000
0003C000
0003C000
0003C000
00078000
00078000
00078000
000F0000
000F0000
000F0000
00000000
00000000
00000000
00000000
003C0000
003C0000
00780000
00780000
00000000
00000000
00000000
00000000
00000000
00000000
00000000
00000000
ENDCHAR
STARTCHAR U+2E2E
ENCODING 11822
SWIDTH 1000 0
DWIDTH 18 0
BBX 31 40 -6 -8
BITMAP
00000000
00000000
00000000
00000000
0003FFC0
0003FFC0
0007FF80
0007FF80
001E01E0
003C03C0
003C03C0
003C03C0
001F8000
001F8000
001F8000
003F0000
0003C000
0003C000
00078000
00078000
00078000
000F0000
000F0000
000F0000
00000000
00000000
00000000
00000000
003C0000
003C0000
00780000
00780000
00000000
00000000
00000000
00000000
00000000
00000000
00000000
00000000
ENDCHAR
STARTCHAR U+00b7
ENCODING 183
SWIDTH 1000 0
DWIDTH 18 0
BBX 31 40 -6 -8
BITMAP
00000000
00000000
00000000
00000000
00000000
00000000
00000000
00000000
00000000
00000000
00000000
00000000
00000000
00000000
00000000
00000000
0003C000
0003C000
00078000
00078000
00000000
00000000
00000000
00000000
00000000
00000000
00000000
00000000
00000000
00000000
00000000
00000000
00000000
00000000
00000000
00000000
00000000
00000000
00000000
00000000
ENDCHAR
STARTCHAR U+00A3
ENCODING 163
SWIDTH 1000 0
DWIDTH 18 0
BBX 31 40 -6 -8
BITMAP
00000000
00000000
00000000
00000000
00003FC0
00003FC0
00007F80
00007F80
0001E1E0
0003C3C0
0003C3C0
0003C3C0
00078000
00078000
00078000
000F0000
00FFF000
00FFF000
01FFE000
01FFE000
001E0000
003C0000
003C0000
003C0000
01FF8000
01FF8000
01FF8000
03FF0000
0FF3F000
0FF3F000
1FE7E000
1FE7E000
07800000
0F000000
0F000000
0F000000
00000000
00000000
00000000
00000000
ENDCHAR
STARTCHAR U+2260
ENCODING 8800
SWIDTH 1000 0
DWIDTH 18 0
BBX 31 40 -6 -8
BITMAP
00000000
00000000
00000000
00000000
000000F0
000000F0
000001E0
000001E0
00000780
00000F00
00000F00
00000F00
007FFF80
007FFF80
007FFF80
00FFFF00
0003C000
0003C000
00078000
00078000
01FFFE00
03FFFC00
03FFFC00
03FFFC00
01E00000
01E00000
01E00000
03C00000
0F000000
0F000000
1E000000
1E000000
00000000
00000000
00000000
00000000
00000000
00000000
00000000
00000000
ENDCHAR
STARTCHAR U+03C0
ENCODING 960
SWIDTH 1000 0
DWIDTH 18 0
BBX 31 40 -6 -8
BITMAP
00000000
00000000
00000000
00000000
00000000
00000000
00000000
00000000
00000000
00000000
00000000
00000000
007FFF80
007FFF80
007FFF80
00FFFF00
000F3C00
000F3C00
001E7800
001E7800
001E7800
003CF000
003CF000
003CF000
0079E000
0079E000
0079E000
00F3C000
03C3C000
03C3C000
07878000
07878000
00000000
00000000
00000000
00000000
00000000
00000000
00000000
00000000
ENDCHAR
STARTCHAR U+2265
ENCODING 8805
SWIDTH 1000 0
DWIDTH 18 0
BBX 31 40 -6 -8
BITMAP
00000000
00000000
00000000
00000000
000F0000
000F0000
001E0000
001E0000
0002E000
0003C000
0003C000
0003C000
00007800
00007800
00007800
0000E800
00000F00
00000F00
00001E00
00001E00
0001E000
0003C000
0003C000
0007C000
00780000
00780000
00B80000
00F00000
0F000000
0F000000
1E000000
1E000000
1FFFE000
3FFFC000
3FFFC000
3FFFC000
00000000
00000000
00000000
00000000
ENDCHAR
STARTCHAR U+2264
ENCODING 8804
SWIDTH 1000 0
DWIDTH 18 0
BBX 31 40 -6 -8
BITMAP
00000000
00000000
00000000
00000000
000000F0
000000F0
000001E0
000001E0
00001E00
00003C00
00003C00
00007C00
00078000
00078000
000B8000
000F0000
00F00000
00F00000
01E00000
01E00000
002E0000
003C0000
003C0000
003C0000
00078000
00078000
00078000
000E8000
0000F000
0000F000
0001E000
0001E000
1FFFE000
3FFFC000
3FFFC000
3FFFC000
00000000
00000000
00000000
00000000
ENDCHAR
STARTCHAR U+2502
ENCODING 9474
SWIDTH 1000 0
DWIDTH 18 0
BBX 31 40 -6 -8
BITMAP
00001E00
00001E00
00001E00
00003C00
00003C00
00003C00
00007800
00007800
00007800
0000F000
0000F000
0000F000
0001E000
0001E000
0001E000
0003C000
0003C000
0003C000
00078000
00078000
00078000
000F0000
000F0000
000F0000
001E0000
001E0000
001E0000
003C0000
003C0000
003C0000
00780000
00780000
00780000
00F00000
00F00000
00F00000
01E00000
01E00000
01E00000
03C00000
ENDCHAR
STARTCHAR U+252C
ENCODING 9516
SWIDTH 1000 0
DWIDTH 18 0
BBX 31 40 -6 -8
BITMAP
00000000
00000000
00000000
00000000
00000000
00000000
00000000
00000000
00000000
00000000
00000000
00000000
00000000
00000000
00000000
00000000
00FFFFC0
00FFFFC0
01FFFF80
01FFFF80
00078000
000F0000
000F0000
000F0000
001E0000
001E0000
001E0000
003C0000
003C0000
003C0000
00780000
00780000
00780000
00F00000
00F00000
00F00000
01E00000
01E00000
01E00000
03C00000
ENDCHAR
STARTCHAR U+2534
ENCODING 9524
SWIDTH 1000 0
DWIDTH 18 0
BBX 31 40 -6 -8
BITMAP
00001E00
00001E00
00001E00
00003C00
00003C00
00003C00
00007800
00007800
00007800
0000F000
0000F000
0000F000
0001E000
0001E000
0001E000
0003C000
00FFFFC0
00FFFFC0
01FFFF80
01FFFF80
00000000
00000000
00000000
00000000
00000000
00000000
00000000
00000000
00000000
00000000
00000000
00000000
00000000
00000000
00000000
00000000
00000000
00000000
00000000
00000000
ENDCHAR
STARTCHAR U+2524
ENCODING 9508
SWIDTH 1000 0
DWIDTH 18 0
BBX 31 40 -6 -8
BITMAP
00001E00
00001E00
00001E00
00003C00
00003C00
00003C00
00007800
00007800
00007800
0000F000
0000F000
0000F000
0001E000
0001E000
0001E000
0003C000
00FFC000
00FFC000
01FF8000
01FF8000
00078000
000F0000
000F0000
000F0000
001E0000
001E0000
001E0000
003C0000
003C0000
003C0000
00780000
00780000
00780000
00F00000
00F00000
00F00000
01E00000
01E00000
01E00000
03C00000
ENDCHAR
STARTCHAR U+251C
ENCODING 9500
SWIDTH 1000 0
DWIDTH 18 0
BBX 31 40 -6 -8
BITMAP
00001E00
00001E00
00001E00
00003C00
00003C00
00003C00
00007800
00007800
00007800
0000F000
0000F000
0000F000
0001E000
0001E000
0001E000
0003C000
0003FFC0
0003FFC0
0007FF80
0007FF80
00078000
000F0000
000F0000
000F0000
001E0000
001E0000
001E0000
003C0000
003C0000
003C0000
00780000
00780000
00780000
00F00000
00F00000
00F00000
01E00000
01E00000
01E00000
03C00000
ENDCHAR
STARTCHAR U+23BD
ENCODING 9149
SWIDTH 1000 0
DWIDTH 18 0
BBX 31 40 -6 -8
BITMAP
00000000
00000000
00000000
00000000
00000000
00000000
00000000
00000000
00000000
00000000
00000000
00000000
00000000
00000000
00000000
00000000
00000000
00000000
00000000
00000000
00000000
00000000
00000000
00000000
00000000
00000000
00000000
00000000
00000000
00000000
00000000
00000000
1FFFF800
3FFFF000
3FFFF000
3FFFF000
00000000
00000000
00000000
00000000
ENDCHAR
STARTCHAR U+23BC
ENCODING 9148
SWIDTH 1000 0
DWIDTH 18 0
BBX 31 40 -6 -8
BITMAP
00000000
00000000
00000000
00000000
00000000
00000000
00000000
00000000
00000000
00000000
00000000
00000000
00000000
00000000
00000000
00000000
00000000
00000000
00000000
00000000
00000000
00000000
00000000
00000000
07FFFE00
07FFFE00
07FFFE00
0FFFFC00
00000000
00000000
00000000
00000000
00000000
00000000
00000000
00000000
00000000
00000000
00000000
00000000
ENDCHAR
STARTCHAR U+2500
ENCODING 9472
SWIDTH 1000 0
DWIDTH 18 0
BBX 31 40 -6 -8
BITMAP
00000000
00000000
00000000
00000000
00000000
00000000
00000000
00000000
00000000
00000000
00000000
00000000
00000000
00000000
00000000
00000000
00FFFFC0
00FFFFC0
01FFFF80
01FFFF80
00000000
00000000
00000000
00000000
00000000
00000000
00000000
00000000
00000000
00000000
00000000
00000000
00000000
00000000
00000000
00000000
00000000
00000000
00000000
00000000
ENDCHAR
STARTCHAR U+23BB
ENCODING 9147
SWIDTH 1000 0
DWIDTH 18 0
BBX 31 40 -6 -8
BITMAP
00000000
00000000
00000000
00000000
00000000
00000000
00000000
00000000
001FFFF8
003FFFF0
003FFFF0
003FFFF0
00000000
00000000
00000000
00000000
00000000
00000000
00000000
00000000
00000000
00000000
00000000
00000000
00000000
00000000
00000000
00000000
00000000
00000000
00000000
00000000
00000000
00000000
00000000
00000000
00000000
00000000
00000000
00000000
ENDCHAR
STARTCHAR U+23BA
ENCODING 9146
SWIDTH 1000 0
DWIDTH 18 0
BBX 31 40 -6 -8
BITMAP
0007FFFE
0007FFFE
0007FFFE
000FFFFC
00000000
00000000
00000000
00000000
00000000
00000000
00000000
00000000
00000000
00000000
00000000
00000000
00000000
00000000
00000000
00000000
00000000
00000000
00000000
00000000
00000000
00000000
00000000
00000000
00000000
00000000
00000000
00000000
00000000
00000000
00000000
00000000
00000000
00000000
00000000
00000000
ENDCHAR
STARTCHAR U+253C
ENCODING 9532
SWIDTH 1000 0
DWIDTH 18 0
BBX 31 40 -6 -8
BITMAP
00001E00
00001E00
00001E00
00003C00
00003C00
00003C00
00007800
00007800
00007800
0000F000
0000F000
0000F000
0001E000
0001E000
0001E000
0003C000
00FFFFC0
00FFFFC0
01FFFF80
01FFFF80
00078000
000F0000
000F0000
000F0000
001E0000
001E0000
001E0000
003C0000
003C0000
003C0000
00780000
00780000
00780000
00F00000
00F00000
00F00000
01E00000
01E00000
01E00000
03C00000
ENDCHAR
STARTCHAR U+2514
ENCODING 9492
SWIDTH 1000 0
DWIDTH 18 0
BBX 31 40 -6 -8
BITMAP
00001E00
00001E00
00001E00
00003C00
00003C00
00003C00
00007800
00007800
00007800
0000F000
0000F000
0000F000
0001E000
0001E000
0001E000
0003C000
0003FFC0
0003FFC0
0007FF80
0007FF80
00000000
00000000
00000000
00000000
00000000
00000000
00000000
00000000
00000000
00000000
00000000
00000000
00000000
00000000
00000000
00000000
00000000
00000000
00000000
00000000
ENDCHAR
STARTCHAR U+250C
ENCODING 9484
SWIDTH 1000 0
DWIDTH 18 0
BBX 31 40 -6 -8
BITMAP
00000000
00000000
00000000
00000000
00000000
00000000
00000000
00000000
00000000
00000000
00000000
00000000
00000000
00000000
00000000
00000000
0003FFC0
0003FFC0
0007FF80
0007FF80
00078000
000F0000
000F0000
000F0000
001E0000
001E0000
001E0000
003C0000
003C0000
003C0000
00780000
00780000
00780000
00F00000
00F00000
00F00000
01E00000
01E00000
01E00000
03C00000
ENDCHAR
STARTCHAR U+2510
ENCODING 9488
SWIDTH 1000 0
DWIDTH 18 0
BBX 31 40 -6 -8
BITMAP
00000000
00000000
00000000
00000000
00000000
00000000
00000000
00000000
00000000
00000000
00000000
00000000
00000000
00000000
00000000
00000000
00FFC000
00FFC000
01FF8000
01FF8000
00078000
000F0000
000F0000
000F0000
001E0000
001E0000
001E0000
003C0000
003C0000
003C0000
00780000
00780000
00780000
00F00000
00F00000
00F00000
01E00000
01E00000
01E00000
03C00000
ENDCHAR
STARTCHAR U+2518
ENCODING 9496
SWIDTH 1000 0
DWIDTH 18 0
BBX 31 40 -6 -8
BITMAP
00001E00
00001E00
00001E00
00003C00
00003C00
00003C00
00007800
00007800
00007800
0000F000
0000F000
0000F000
0001E000
0001E000
0001E000
0003C000
00FFC000
00FFC000
01FF8000
01FF8000
00000000
00000000
00000000
00000000
00000000
00000000
00000000
00000000
00000000
00000000
00000000
00000000
00000000
00000000
00000000
00000000
00000000
00000000
00000000
00000000
ENDCHAR
STARTCHAR U+240B
ENCODING 9227
SWIDTH 1000 0
DWIDTH 18 0
BBX 31 40 -6 -8
BITMAP
00000000
00000000
00000000
00000000
000F0F00
000F0F00
001E1E00
001E1E00
001E1E00
003C3C00
003C3C00
003C3C00
001FE000
001FE000
001FE000
003FC000
003FC000
003FC000
007F8000
007F8000
001FFE00
003FFC00
003FFC00
003FFC00
00078000
00078000
00078000
000F0000
000F0000
000F0000
001E0000
001E0000
001E0000
003C0000
003C0000
003C0000
00780000
00780000
00780000
00F00000
ENDCHAR
STARTCHAR U+2424
ENCODING 9252
SWIDTH 1000 0
DWIDTH 18 0
BBX 31 40 -6 -8
BITMAP
00000000
00000000
00000000
00000000
000F0F00
000F0F00
001E1E00
001E1E00
001F9E00
003F3C00
003F3C00
003F3C00
007FF800
007FF800
007FF800
00FFF000
00F3F000
00F3F000
01E7E000
01E7E000
01E7E000
03CFC000
03CFC000
03CFC000
001E0000
001E0000
001E0000
003C0000
003C0000
003C0000
00780000
00780000
00780000
00F00000
00F00000
00F00000
01FF8000
01FF8000
01FF8000
03FF0000
ENDCHAR
STARTCHAR U+00B1
ENCODING 177
SWIDTH 1000 0
DWIDTH 18 0
BBX 31 40 -6 -8
BITMAP
00000000
00000000
00000000
00000000
00000000
00000000
00000000
00000000
00007800
0000F000
0000F000
0000F000
0001E000
0001E000
0001E000
0003C000
00FFFF00
00FFFF00
01FFFE00
01FFFE00
00078000
000F0000
000F0000
000F0000
001E0000
001E0000
001E0000
003C0000
0FFFF000
0FFFF000
1FFFE000
1FFFE000
00000000
00000000
00000000
00000000
00000000
00000000
00000000
00000000
ENDCHAR
STARTCHAR U+00B0
ENCODING 176
SWIDTH 1000 0
DWIDTH 18 0
BBX 31 40 -6 -8
BITMAP
00000000
00000000
00000000
00000000
0000FF00
0000FF00
0001FE00
0001FE00
00078780
000F0F00
000F0F00
000F0F00
0007F800
0007F800
0007F800
000FF000
00000000
00000000
00000000
00000000
00000000
00000000
00000000
00000000
00000000
00000000
00000000
00000000
00000000
00000000
00000000
00000000
00000000
00000000
00000000
00000000
00000000
00000000
00000000
00000000
ENDCHAR
STARTCHAR U+240A
ENCODING 9226
SWIDTH 1000 0
DWIDTH 18 0
BBX 31 40 -6 -8
BITMAP
00000000
00000000
00000000
00000000
000F0000
000F0000
001E0000
001E0000
001E0000
003C0000
003C0000
003C0000
00780000
00780000
00780000
00F00000
00F00000
00F00000
01E00000
01E00000
01FFFE00
03FFFC00
03FFFC00
03FFFC00
001E0000
001E0000
001E0000
003C0000
003FC000
003FC000
007F8000
007F8000
00780000
00F00000
00F00000
00F00000
01E00000
01E00000
01E00000
03C00000
ENDCHAR
STARTCHAR U+240D
ENCODING 9229
SWIDTH 1000 0
DWIDTH 18 0
BBX 31 40 -6 -8
BITMAP
00000000
00000000
00000000
00000000
0003FC00
0003FC00
0007F800
0007F800
001E0000
003C0000
003C0000
003C0000
00780000
00780000
00780000
00F00000
00F00000
00F00000
01E00000
01E00000
007FF800
00FFF000
00FFF000
00FFF000
001E7800
001E7800
001E7800
003CF000
003FC000
003FC000
007F8000
007F8000
0079E000
00F3C000
00F3C000
00F3C000
01E78000
01E78000
01E78000
03CF0000
ENDCHAR
STARTCHAR U+240C
ENCODING 9228
SWIDTH 1000 0
DWIDTH 18 0
BBX 31 40 -6 -8
BITMAP
00000000
00000000
00000000
00000000
000FFC00
000FFC00
001FF800
001FF800
001E0000
003C0000
003C0000
003C0000
007F8000
007F8000
007F8000
00FF0000
00F00000
00F00000
01E00000
01E00000
01E7FE00
03CFFC00
03CFFC00
03CFFC00
001E0000
001E0000
001E0000
003C0000
003FC000
003FC000
007F8000
007F8000
00780000
00F00000
00F00000
00F00000
01E00000
01E00000
01E00000
03C00000
ENDCHAR
STARTCHAR U+2409
ENCODING 9225
SWIDTH 1000 0
DWIDTH 18 0
BBX 31 40 -6 -8
BITMAP
00000000
00000000
00000000
00000000
000F3C00
000F3C00
001E7800
001E7800
001E7800
003CF000
003CF000
003CF000
007FE000
007FE000
007FE000
00FFC000
00F3C000
00F3C000
01E78000
01E78000
01FFFE00
03FFFC00
03FFFC00
03FFFC00
00078000
00078000
00078000
000F0000
000F0000
000F0000
001E0000
001E0000
001E0000
003C0000
003C0000
003C0000
00780000
00780000
00780000
00F00000
ENDCHAR
STARTCHAR U+2592
ENCODING 9618
SWIDTH 1000 0
DWIDTH 18 0
BBX 31 40 -6 -8
BITMAP
00000000
00000000
00000000
00000000
000F3CF0
000F3CF0
001E79E0
001E79E0
00078B80
000F0F00
000F0F00
000F1F00
0079E780
0079E780
007AE780
00F3AF00
003C3C00
003C3C00
00787800
00787800
01EB9E00
03CF3C00
03CF3C00
03DF3C00
01E1E000
01E1E000
01E2E000
03A3C000
0F3CF000
0F3CF000
1E79E000
1E79E000
00000000
00000000
00000000
00000000
00000000
00000000
00000000
00000000
ENDCHAR
STARTCHAR U+25C6
ENCODING 9670
SWIDTH 1000 0
DWIDTH 18 0
BBX 31 40 -6 -8
BITMAP
00000000
00000000
00000000
00000000
00003C00
00003C00
00007800
00007800
0001FE00
0003FC00
0003FC00
0003FC00
001FFE00
001FFE00
001FFE00
003FFC00
00FFFF00
00FFFF00
01FFFE00
01FFFE00
007FF800
00FFF000
00FFF000
00FFF000
007F8000
007F8000
007F8000
00FF0000
003C0000
003C0000
00780000
00780000
00000000
00000000
00000000
00000000
00000000
00000000
00000000
00000000
ENDCHAR
STARTCHAR U+0020
ENCODING 32
SWIDTH 1000 0
DWIDTH 18 0
BBX 31 40 -6 -8
BITMAP
00000000
00000000
00000000
00000000
00000000
00000000
00000000
00000000
00000000
00000000
00000000
00000000
00000000
00000000
00000000
00000000
00000000
00000000
00000000
00000000
00000000
00000000
00000000
00000000
00000000
00000000
00000000
00000000
00000000
00000000
00000000
00000000
00000000
00000000
00000000
00000000
00000000
00000000
00000000
00000000
ENDCHAR
ENDFONT
